<?xml version="1.0" encoding="utf-8"?>
<!-- Generator: Adobe Illustrator 18.1.1, SVG Export Plug-In . SVG Version: 6.00 Build 0)  -->
<svg version="1.1" xmlns="http://www.w3.org/2000/svg" xmlns:xlink="http://www.w3.org/1999/xlink" x="0px" y="0px"
	 viewBox="0 0 500 500" enable-background="new 0 0 500 500" xml:space="preserve">
<g id="BACKGROUND">
	<g>
		<path fill="#E8EAEC" d="M44.9,271.9c-17.2-81.3,28.5-138.4,96.4-130.7c27.5,3.1,54.4,19,81,11.8c29.5-8,42.7-39.9,64.6-60.3
			c49.2-46,133.1-26.8,154.5,35.6c9.8,28.6,3,61.8-17.5,84.7c-9.6,10.8-22.4,20-27.2,33.4c-13.8,38,46.1,81.7,16,115.3
			c-12.8,14.3-37.8,13.1-54.3,2.7c-46.4-29.3-50-127.8-159.1-73.6c-52.3,25.9-64,45.9-88.7,47.2C71.1,340.1,50.3,297.6,44.9,271.9z"
			/>
	</g>
</g>
<g id="OBJECTS">
	<g>
		<path fill="#192342" d="M130.3,191.5l-7.9,3.5c-12.6,5.6-20.7,18.1-20.7,32V287c0,5.6,3.7,10.6,9.1,12.2l19.5,5.8V191.5z"/>
		<g>
			<path fill="#567DF4" d="M205.1,186.1c-3.2-2.3-7-3.5-10.9-3.5h-8.8l12.4,24.3l9.8,7l15.8-14.8L205.1,186.1z"/>
			<polygon fill="#3F7AFF" points="197.8,194.7 191.6,194.7 197.8,206.9 207.6,213.8 219.7,202.4 			"/>
			<polygon fill="#F4B4A3" points="223.3,199.1 207.6,213.8 244.1,213.8 			"/>
			<polygon fill="#EF876A" points="219.7,202.4 207.6,213.8 244.1,213.8 234.4,206.9 219.7,202.4 			"/>
		</g>
		<g>
			<path fill="#567DF4" d="M140.2,182.6h45.2c3.8,0,7.3,2.1,9.1,5.5c6.5,12.1,20.1,45.3,17.6,108.5h-97c0,0,6.1-25.3,25.8-54.7
				c0,0-10-26.3-11.1-48.5C129.5,187.5,134.3,182.6,140.2,182.6z"/>
			<path fill="#3F7AFF" d="M145.4,207.8h-13.8c3.2,17.8,9.4,34.1,9.4,34.1c-19.7,29.4-25.8,54.7-25.8,54.7h17.6
				c0-26.2,12.6-41.7,12.6-52.2C145.4,233.9,145.4,207.8,145.4,207.8z"/>
		</g>
		<g>
			<g>
				<g>
					<path fill="#F4B4A3" d="M154.6,153.9c0,0-3.1,27.1-3.1,30.1c0,4,6.2,7.5,12.7,7.5c6.5,0,12.7-3.5,12.7-7.5
						c0-3,3.1-30.1,3.1-30.1H154.6z"/>
				</g>
				<path fill="#EF876A" d="M154.6,153.9c0,0-3.1,27.1-3.1,30.1c0,2.6,2.7,5.1,6.4,6.4h0c1.4-16.3,11.2-17.6,20.1-17.6l2.1-18.9
					H154.6z"/>
			</g>
			<g>
				<g>
					<g>
						<path fill="#F4B4A3" d="M191.2,140.4c0,12.1-9.5,21.9-21.2,21.9c-11.7,0-21.2-9.8-21.2-21.9c0-14,9.9-23.3,25.2-21.9
							C185.7,119.5,191.2,127.5,191.2,140.4z"/>
					</g>
					<path fill="#EF876A" d="M169.8,141.7c-1.9-3.5-9.2-4.5-12,1.7c-2.6,5.8-7.6,5-8.4,1.4c2,9.9,10.5,17.4,20.7,17.4
						c11.3,0,20.5-9.1,21.1-20.6H169.8z"/>
				</g>
				<g>
					<path fill="#EF876A" d="M184.7,171.1h-13.8c-3,0-5.5-2.8-5.5-6.2v-15.8h19.3V171.1z"/>
					<path fill="#F4B4A3" d="M173.6,145.7c0.6,3.2-1.3,6.3-4.3,6.8c-3,0.5-5.8-1.6-6.4-4.8c-0.6-3.2,1.3-6.3,4.3-6.8
						C170.1,140.3,173,142.4,173.6,145.7z"/>
					<g>
						<path fill="#F4B4A3" d="M195.4,149.2c-0.1-0.4-3.5-5.4-3.7-5.9c-0.7-1.3,0.9-1.6,1.1-4.3c0.8-10.4-9.1-20-14.4-19
							c-9.2,1.7-9.3,11.6-8.3,20.1c0.2,1.5,0.9,7.5,1.1,9.1c1.2,10.3,7.2,21.9,13.6,21.9c4.7,0,7-4.7,7.5-11
							c0.4-4.9-0.9-9.8,0.7-9.8h1.6C195.1,150.3,195.5,149.8,195.4,149.2z"/>
					</g>
				</g>
				<path fill="#1D3240" d="M186.1,144.8c0,0.8-0.6,1.4-1.4,1.4c-0.8,0-1.4-0.6-1.4-1.4c0-0.8,0.6-1.4,1.4-1.4
					C185.5,143.4,186.1,144,186.1,144.8z"/>
				<path fill="none" stroke="#38312F" stroke-width="0.4781" stroke-linecap="round" stroke-miterlimit="10" d="M190.8,155.9
					c-3.7,0-5.7-0.6-6.7-2.5"/>
				<path fill="#1D3240" d="M178.4,141.9c1.3-1.1,3.5-2.2,4.7-2.5c1-0.3,3.3-0.7,5.2,0.8l0,0.1c-1.3-0.1-3.1-0.2-5.1,0.1
					c-1.6,0.2-3.7,1-4.7,1.6L178.4,141.9z"/>
			</g>
			<path fill="#1D3240" d="M171.1,142.4c3.5,3.5,7.8-2.7,7.3-5.5c0,0,11.1,2.1,17.1,0c0,0-0.9-19.4-21.3-18.4c0,0-6.7-5-14.5-3.5
				s-5,7.6-13.5,14.1c-8.1,6.2-6.9,22.5,5.5,32.5c1.2,1,1.9,2.5,1.7,4l-0.3,3.1c0,0,7.4-5,8-11c0.6-6-0.9-12.9,3-16
				C167.7,138.6,171.1,142.4,171.1,142.4z"/>
			<path fill="#1D3240" d="M150.4,121.9c-0.4-2,0.7-10.2-7-12.5c-7.4-2.2-14.2,5.1-11.5,12.4c-7.4-7.1-17-6-20.1,1.5
				c-3,7.1,4.5,11.3,6.1,12.9c1.7,1.7,1.6,4.6-1.3,4.6c-4,0-9.9,0-13.6,6c-3.9,6.3,1.3,16.7,9.3,17.1c7.3,0.3,10.5-4.8,9.7-9.3
				c2.6,6.6,16.9,8.4,20.5-3.4c2.6-8.4-2.9-18.7-11.4-19.7c8,2.4,7.4-9.1,11.7-7.1c2.1,0.9,1.5,6.3,6.6,5.5c1.4-0.2,3.6-1.6,3.5-3.3
				C152.8,125,150.8,123.7,150.4,121.9z"/>
		</g>
		<path fill="#1D3240" d="M119.8,296.5c0,0-15.8,30.7-24.6,75.5h108.1c0,0,4.3-39.5,6.1-75.5H119.8z"/>
		<g>
			<path fill="#1D3240" d="M192.2,424.4c3.6,0.5,1.6,4.1,5.8,6.5c10.7,6.3,15.4,2.3,15.9,11.5c0,0,2.8,1.3,0,5.9h-48.2
				c0,0-2.2-5,0-5.9c0,0,0.3-6.2,3.1-9.1c3.7-4,1.1-7.5,4.6-8.1C187.8,422.7,192.2,424.4,192.2,424.4z"/>
			<path fill="#F4B4A3" d="M169.4,372l3,58.9c0,0,4.1,3.6,8.3-2.2c4-5.5,8.2-4.8,8.2-4.8l5.9-51.9H169.4z"/>
			<path fill="#EF876A" d="M194.5,374.3c0,0.1-13.1,0-18.1,0s-6.5,7.9-6.5,7.9l-0.5-10.3h25.4L194.5,374.3z"/>
		</g>
		<g>
			<path fill="#1D3240" d="M131.3,424.9c1.6,1.5,1.6,4.5,1.4,9.9c-0.2,5.4-0.2,7.6-0.2,7.6s1.6,0.7,0.3,5.9h-29.1
				c0,0-1.1-3.6,1.1-5.7c0,0-0.4-3.7,3.5-7.8c3.9-4.1,3.2-10.1,6.9-10.4c0,0,3.1-2.7,10.2-1.5C129.9,423.7,131.3,424.9,131.3,424.9z
				"/>
			<path fill="#F4B4A3" d="M150.3,372l-19,58.6c0,0-1.1,0-2-2.7c-0.9-4.4-10.8-4-14.1-3.4l8.6-52.4H150.3z"/>
			<polygon fill="#EF876A" points="123.9,372 150.3,372 149.4,374.7 123.4,374.7 			"/>
		</g>
		<path fill="#567DF4" d="M140.2,182.6c-11.7,0-19.6,10.3-21.7,18.7c-1.6,6.4-5.4,28.6-5.4,28.6h28.2l2-13.3c0,0,3.6-9,2.4-21.9
			C144.5,181.8,140.2,182.6,140.2,182.6z"/>
		<g>
			<path fill="#F4B4A3" d="M135.1,229.9l-4.9,27.7c-0.4,2.1-0.5,4.3-0.3,6.4c0.3,4.4,0.7,12.8-0.4,19.7c-0.9,5.8-1.1,11.8-0.5,17.7
				c0.4,4.2,0.9,8.4,1,9.8l2.9,2.2l4.5,7.2c0.3,0.4,0.1,1-0.3,1.2l-1.5,0.9l0.3,0.4c1.1,1.5,0.7,3.5-0.9,4.4l-6.9,4.3
				c-1.1,0.7-2.5,0.6-3.4-0.3l-3.9-3.4c-0.5-0.4-0.8-1-0.9-1.6l-2.4-13c0,0-6.7-21.2-4.4-50.5c2.3-29.3,3.2-33.2,3.2-33.2H135.1z"/>
		</g>
		<path fill="#EF876A" d="M130,258.8c-0.4-2.1-4.5-1.4-4.5-1.4s5.1-11.6,7.7-27.5h1.9L130,258.8z"/>
		<g>
			<path fill="#1D3240" d="M146.6,181.6c0,0-6,0-9.9,0c-2.9,0-3.5,0.4-4.1,1c-0.8,0.7-0.7,1.9-0.7,1.9s1.5-0.7,2.7-1.1
				c3.8,3,5.8,13.6,3.9,27.4c-2.2,16.4-8.3,46.8-8.3,46.8c-0.4,2.1-0.5,4.3-0.3,6.4c0.3,4.4,0.7,12.8-0.4,19.7
				c-0.2,1.5-0.4,2.9-0.6,4.4c0-0.1,21.4-59.7,24.2-77.3C155.6,194.5,151.7,181.6,146.6,181.6z"/>
			<path fill="#1D3240" d="M177,182.6c0,0,6.1,3.1,12.5,10.9c9.9,12.1,18.1,31.1,21,53.2v-16.8c0,0-0.9-24.8-10.4-37.7
				c-8.4-11.5-17.6-10.5-17.6-10.5h-5.4L177,182.6z"/>
		</g>
		<g>
			<path fill="#F4B4A3" d="M169.4,218.6l-4.1,8.8c-0.6,1.2,0.1,2.7,1.4,3.1l3,0.9l6.3,0.8l6.8-1.5c1.2-0.3,2-1.3,2-2.5v-2.4l1.5-1.4
				h6.1c1.5,0,2.8-0.8,3.4-2.2l0,0h6.9c4,0,7.8,1.1,11.2,3.2c4.8,2.9,12.5,6.8,19.8,6.8c11.7,0,16.4-5.6,16.4-7.8
				c0-2.2-2.9-13.7-15.6-13.7h-37.9c-0.4,0-0.7,0-1.1,0.1l-23.1,5.3C171.1,216.5,170,217.4,169.4,218.6z"/>
			<polygon fill="#EF876A" points="195.4,222.3 196,219.5 200.2,222.3 			"/>
			<path fill="#F4B4A3" d="M169.2,231.5l-0.2,0.3c-0.8,1.1,0.1,2.7,1.3,3.3h-0.5c0.8,0.4,1.7,0.3,2.3-0.2l3.3-2.5L169.2,231.5z"/>
			<polygon fill="#EF876A" points="175.5,232.3 169.2,231.5 173.3,233.9 			"/>
		</g>
	</g>
	<g>
		<path fill="#192342" d="M289.7,210.8v76.5c0,8.2,6.7,14.9,14.9,14.9h36v-91.4H289.7z"/>
		<g>
			<g>
				<path fill="#1D3240" d="M318.1,424.4c-3.6,0.5-1.6,4.1-5.8,6.5c-10.7,6.3-15.4,2.3-15.9,11.5c0,0-2.8,1.3,0,5.9h48.2
					c0,0,2.2-5,0-5.9c0,0-0.3-6.2-3.1-9.1c-3.7-4-1.1-7.5-4.6-8.1C322.6,422.7,318.1,424.4,318.1,424.4z"/>
				<path fill="#B85134" d="M340.9,372l-3,58.9c0,0-4.1,3.6-8.3-2.2c-4-5.5-8.2-4.8-8.2-4.8l-5.9-51.9H340.9z"/>
				<path fill="#8A3D28" d="M315.8,374.3c0,0.1,13.1,0,18.1,0c5,0,6.5,7.9,6.5,7.9l0.5-10.3h-25.4L315.8,374.3z"/>
			</g>
			<g>
				<polygon fill="#1D3240" points="303.5,296.5 308.5,372 347.2,372 351.5,325.4 351.5,296.5 				"/>
				<polygon fill="#182933" points="351.5,320.1 342.6,320.1 347.2,372 351.5,325.4 				"/>
			</g>
		</g>
		<g>
			<g>
				<path fill="#567DF4" d="M369.4,182.6c13.1,0,25.8,50.8,25.8,50.8L369,244.1l-1.5-61.5H369.4z"/>
				<polygon fill="#3F7AFF" points="369,244.1 379,240 374.8,203.9 368.1,203.9 				"/>
			</g>
			<g>
				<path fill="#B85134" d="M374.8,241.7l2.9,8.3c0,0,4.8,17.6,14.9,32.7l3.3,10.9c0.6,1.9,0.5,4-0.2,5.8l-0.9,2.2
					c-0.4,1-0.6,2.1-0.6,3.2v16.8c0,0.6,0.5,1,1.1,0.9c1.3-0.2,3.4-1,3.7-3.8c0.5-4.1,0-5.9,0-5.9l2,2.2v7.9l-2.9,4.4
					c-0.6,0.9-0.7,1.9-0.5,2.9l0,0c0.1,0.2,0.3,0.3,0.5,0.2l8.4-5.4c1.7-1.1,2.9-2.7,3.4-4.7l1.1-4.2c0.2-0.7,0.3-1.4,0.3-2.2v-9.1
					c0-0.5,0-1.1-0.1-1.6c-1.1-6-8.4-44.4-15.8-60.8l-3.3-8.1L374.8,241.7z"/>
				<path fill="#8A3D28" d="M379,240l-4.2,1.7l2.9,8.3c0,0,1.2,4.4,3.6,10.7L379,240z"/>
			</g>
		</g>
		<path fill="#567DF4" d="M365.7,244.3c7.9-28.4,10-44.3,10.4-52.9c0.2-4.9-3.7-8.9-8.5-8.9h-53.6h-8.8c-3.9,0-7.7,1.2-10.9,3.5
			l-39,27.8H276c11.3,0,20.8,8.8,21.6,20.1l1.5,22l2.4,40.6h89.1C385.8,270.1,365.7,244.3,365.7,244.3z"/>
		<path fill="#3F7AFF" d="M301.8,183.1c-2.9,0-2.3,0.7-2.3,0.7c0.8,0.2,1.3,2.7,1.5,5.6c0.3,4.7-2.9,8.9-7.5,9.9l-24.6,4.9
			l-13.6,9.7H276c11.3,0,20.8,8.8,21.6,20.1l1.5,20.8c6.6-27,6.6-58,6.6-58S304.7,183.1,301.8,183.1z"/>
		<g>
			<g>
				<g>
					<g>
						<g>
							<path fill="#B85134" d="M316.2,163.2l5.2,20.8c0,3.6,3.4,9.7,14.1,9.7s14.4-6.1,14.4-9.7l-8.6-38.7L316.2,163.2z"/>
						</g>
					</g>
				</g>
				<path fill="#8A3D28" d="M341.2,145.3l8.6,38.7c0,1.9-1,4.6-3.7,6.6c-4.9-21.9-19.1-19.6-27.8-18.5l-2.2-8.9L341.2,145.3z"/>
			</g>
			<g>
				<g>
					<g>
						<path fill="#B85134" d="M306.5,140.4c0,11.3,9.1,20.4,20.4,20.4c11.3,0,20.4-9.1,20.4-20.4c0-13.1-9.5-21.7-24.3-20.4
							C311.8,121,306.5,128.4,306.5,140.4z"/>
					</g>
					<path fill="#8A3D28" d="M326.6,141.7c1.9-3.3,9.5-4.2,12.2,1.6c2.5,5.4,7.3,4.7,8.1,1.3c-1.9,9.3-10.1,16.2-20,16.2
						c-10.9,0-19.7-8.5-20.4-19.2H326.6z"/>
				</g>
				<g>
					<path fill="#B85134" d="M302.7,149.4c0.2,0.6,0.8,1,1.4,1c0.3,0,0.6,0,1-0.1c1.1,0-0.1,2.4-0.1,6.3c0,6.3,2.2,12.7,9.7,12.5
						c7.7-0.2,13-9.3,12.4-20.5c-0.1-1.5-0.4-7.1-0.5-8.5c-0.6-10-1.8-16.5-8.4-18c-4.9-1.1-13.5,8.1-12.3,17
						c0.2,1.2,0.7,1.6,0.4,2.7c-0.2,0.8-3.4,5.5-3.6,6.1C302.5,148.4,302.5,149,302.7,149.4z"/>
					<path fill="#B85134" d="M330.2,140.9c2.8,0.5,4.6,3.3,4,6.3c-0.5,3-3.2,5-6,4.5c-2.8-0.5-4.6-3.3-4-6.3
						C324.8,142.4,327.5,140.4,330.2,140.9z"/>
				</g>
				<g>
					<path fill="#1D3240" d="M313.9,143.3c0.7,0,1.3,0.6,1.3,1.3c0,0.7-0.6,1.3-1.3,1.3c-0.7,0-1.3-0.6-1.3-1.3
						C312.6,143.9,313.2,143.3,313.9,143.3z"/>
					<path fill="none" stroke="#38312F" stroke-width="0.446" stroke-linecap="round" stroke-miterlimit="10" d="M308.2,155
						c3.4,0,5.3-0.6,6.3-2.3"/>
					<path fill="#1D3240" d="M318.8,141.8c0.7,0.5-2.4-2.2-7.5-1.2c-0.4,0.1-0.7-0.2-0.8-0.5c-0.1-0.4,0.2-0.7,0.5-0.8
						c4.9-0.9,8.3,1.3,8.5,1.4c0.3,0.2,0.4,0.6,0.2,0.9c-0.1,0.2-0.3,0.3-0.6,0.3C319,141.9,318.9,141.8,318.8,141.8z"/>
				</g>
			</g>
			<path fill="#1D3240" d="M322.8,143.1c-2.2-2.8-3.2-6.9-1.6-10.4c0,0-14.4,6.8-19.4,3c-5-3.7-0.1-11,7.3-10c0,0,3.3-0.8,9-8.4
				c5.7-7.6,14.9-5.5,16.8,0.6c0,0,1.6,3,7.3,4c5.7,1.1,7.7,7.8,5.1,13c0,0,4.3,8.7-2.8,18.8l1.3,11.8l-4.6-4.3
				c-2.6-2.4-4.1-5.6-4.4-9c-0.4-4.9-1.4-10.5-5-11.6c-3.1-0.9-5.3,1-6.5,2.5C324.6,143.9,323.4,143.9,322.8,143.1z"/>
		</g>
		<g>
			<path fill="#1D3240" d="M300.2,271.5c28.6-63.4,18.6-90.4,13.7-90.4c-2.9,0-9.4,0-11.4,0c-2,0-5.4,0.9-5.2,3.1
				c0.4-0.1,0.7-0.3,1.1-0.4c1.1-0.4,2.3,0.2,2.7,1.2c7.1,18.9-5.4,84.5-5.4,84.5v11.6C297.3,277.9,298.8,274.7,300.2,271.5z"/>
			<path fill="#1D3240" d="M352.6,182.6c1.9,0,4.4,9.5,5.7,30.2c1.3,20.7,7.4,31.6,7.4,31.6l5.2,7.4c0,0,6.5-70.5-6.1-70.5H353
				c0,0-1.6,0-1.5,1.4H352.6z"/>
		</g>
		<g>
			<g>
				<path fill="#1D3240" d="M388,424.9c-1.6,1.5-1.6,4.5-1.4,9.9c0.2,5.4,0.2,7.6,0.2,7.6s-1.6,0.7-0.3,5.9h29.1
					c0,0,1.1-3.6-1.1-5.7c0,0,0.4-3.7-3.5-7.8c-3.9-4.1-3.2-10.1-6.9-10.4c0,0-3.1-2.7-10.2-1.5C389.4,423.7,388,424.9,388,424.9z"
					/>
				<path fill="#B85134" d="M369,372l19,58.6c0,0,1.1,0,2-2.7c0.9-4.4,10.8-4,14.1-3.4l-8.6-52.4H369z"/>
				<polygon fill="#8A3D28" points="395.4,372 369,372 369.9,374.7 395.9,374.7 				"/>
			</g>
			<path fill="#1D3240" d="M342.6,296.5v23.6c0,4.6,1.5,9.1,4.2,12.9l0,0c1.2,1.6,2.1,3.4,2.8,5.3L362,372h38.9l-11.3-75.5H342.6z"
				/>
		</g>
		<g>
			<path fill="#B85134" d="M329.9,218.6l4.1,8.8c0.6,1.2-0.1,2.7-1.4,3.1l-3,0.9l-6.3,0.8l-6.8-1.5c-1.2-0.3-2-1.3-2-2.5v-2.4
				l-1.5-1.4h-6.1c-1.5,0-2.8-0.8-3.4-2.2l0,0h-6.9c-4,0-7.8,1.1-11.2,3.2c-4.8,2.9-12.5,6.8-19.8,6.8c-11.7,0-16.4-5.6-16.4-7.8
				c0-2.2,2.9-13.7,15.6-13.7h37.9c0.4,0,0.7,0,1.1,0.1l23.1,5.3C328.2,216.5,329.3,217.4,329.9,218.6z"/>
			<polygon fill="#8A3D28" points="303.5,222.3 302.8,219.5 298.7,222.3 			"/>
			<path fill="#B85134" d="M329.6,231.5l0.2,0.3c0.8,1.1,0.3,2.7-0.9,3.3l0,0c-0.8,0.4-1.7,0.3-2.3-0.2l-3.3-2.5L329.6,231.5z"/>
			<polygon fill="#8A3D28" points="323.3,232.3 329.6,231.5 325.5,233.9 			"/>
		</g>
	</g>
	<g>
		<circle fill="#FF317B" cx="413.1" cy="113.8" r="1.1"/>
		<circle fill="#FF317B" cx="372.9" cy="64.5" r="1.4"/>
		<circle fill="#FF317B" cx="335.4" cy="91.9" r="1.4"/>
		<circle fill="#FF317B" cx="340" cy="99.8" r="1.2"/>
		<circle fill="#FF317B" cx="293.3" cy="118.5" r="1.6"/>
		<circle fill="#FF317B" cx="308.8" cy="145.8" r="1.1"/>
		<circle fill="#FF317B" cx="275.2" cy="147.6" r="1.4"/>
		<circle fill="#FF317B" cx="240.4" cy="150.1" r="1.1"/>
		<circle fill="#FF317B" cx="233.2" cy="116.2" r="0.9"/>
		<g>
			<circle fill="#FF317B" cx="276.2" cy="87.1" r="1.5"/>
			<circle fill="#FF317B" cx="245.6" cy="112.3" r="1.2"/>
			<circle fill="#FF317B" cx="210.9" cy="157.8" r="1.1"/>
		</g>
		<circle fill="#FF317B" cx="222.9" cy="78.1" r="1.5"/>
		<circle fill="#FF317B" cx="173" cy="81.2" r="1.1"/>
		<circle fill="#FF317B" cx="156.3" cy="104" r="0.9"/>
		<circle fill="#FF317B" cx="122.1" cy="64.1" r="1.4"/>
		<circle fill="#FF317B" cx="92.3" cy="60" r="1.1"/>
		<circle fill="#FF317B" cx="49.5" cy="99.8" r="1.3"/>
		<circle fill="#FF317B" cx="54" cy="111.4" r="1.3"/>
		<circle fill="#FF317B" cx="74.5" cy="117.9" r="1.2"/>
		<circle fill="#FF317B" cx="69.5" cy="122.7" r="1.2"/>
		<circle fill="#FF317B" cx="67.8" cy="147" r="1.3"/>
		<circle fill="#FF317B" cx="83.5" cy="168.2" r="1.2"/>
		<circle fill="#FF317B" cx="415.3" cy="140.8" r="1.5"/>
		<circle fill="#FF317B" cx="412.5" cy="189.9" r="1.2"/>
		<circle fill="#FF317B" cx="62.3" cy="182.9" r="1.1"/>
		<circle fill="#FF317B" cx="76.1" cy="196.8" r="1.5"/>
		<circle fill="#FF317B" cx="88.8" cy="196.8" r="1.2"/>
	</g>
</g>
</svg>
