<?xml version="1.0" encoding="utf-8"?>
<!-- Generator: Adobe Illustrator 18.1.1, SVG Export Plug-In . SVG Version: 6.00 Build 0)  -->
<svg version="1.1" xmlns="http://www.w3.org/2000/svg" xmlns:xlink="http://www.w3.org/1999/xlink" x="0px" y="0px"
	 viewBox="0 0 500 500" enable-background="new 0 0 500 500" xml:space="preserve">
<g id="Background_Complete">
	<g>
		<rect y="382.4" fill="#EBEBEB" width="500" height="0.3"/>
		<rect x="416.8" y="398.5" fill="#EBEBEB" width="33.1" height="0.3"/>
		<rect x="292.7" y="398.6" fill="#EBEBEB" width="8.7" height="0.3"/>
		<rect x="354.3" y="389.2" fill="#EBEBEB" width="61.4" height="0.3"/>
		<rect x="212.5" y="395.1" fill="#EBEBEB" width="12.7" height="0.3"/>
		<rect x="166.7" y="395.1" fill="#EBEBEB" width="36.8" height="0.3"/>
		<rect x="52.5" y="390.9" fill="#EBEBEB" width="25.4" height="0.3"/>
		<rect x="83.9" y="390.9" fill="#EBEBEB" width="74.9" height="0.3"/>
		<path fill="#EBEBEB" d="M237,337.8H43.9c-3.1,0-5.7-2.6-5.7-5.7V60.7c0-3.1,2.6-5.7,5.7-5.7H237c3.1,0,5.7,2.6,5.7,5.7v271.4
			C242.7,335.2,240.2,337.8,237,337.8z M43.9,55.2c-3,0-5.5,2.4-5.5,5.5v271.4c0,3,2.4,5.5,5.5,5.5H237c3,0,5.5-2.4,5.5-5.5V60.7
			c0-3-2.4-5.5-5.5-5.5H43.9z"/>
		<path fill="#EBEBEB" d="M453.3,337.8H260.2c-3.1,0-5.7-2.6-5.7-5.7V60.7c0-3.1,2.6-5.7,5.7-5.7h193.1c3.1,0,5.7,2.6,5.7,5.7v271.4
			C459,335.2,456.5,337.8,453.3,337.8z M260.2,55.2c-3,0-5.5,2.4-5.5,5.5v271.4c0,3,2.4,5.5,5.5,5.5h193.1c3,0,5.5-2.4,5.5-5.5V60.7
			c0-3-2.4-5.5-5.5-5.5H260.2z"/>
	</g>
	<g>
		<rect x="190.8" y="72" fill="#E6E6E6" width="243" height="177.5"/>
		<rect x="180" y="72" fill="#F0F0F0" width="251.3" height="177.5"/>
		<rect x="195.1" y="87" fill="#FAFAFA" width="221.2" height="147.4"/>
		<polygon fill="#FFFFFF" points="362.5,234.5 312.2,87 264.1,87 314.4,234.5 		"/>
		<polygon fill="#FFFFFF" points="304.1,234.5 253.7,87 235,87 285.3,234.5 		"/>
		<rect x="195.1" y="87" fill="#E6E6E6" width="1.9" height="147.4"/>
	</g>
	<g>
		<rect x="405.6" y="267.6" fill="#F0F0F0" width="10" height="107.5"/>
		<rect x="202.1" y="375.1" fill="#F0F0F0" width="209.7" height="7.2"/>
		<rect x="198.2" y="267.6" fill="#F5F5F5" width="207.4" height="107.5"/>
		<rect x="408" y="260.8" fill="#E0E0E0" width="10.3" height="6.8"/>
		<rect x="195.5" y="260.8" fill="#EBEBEB" width="212.4" height="6.8"/>
		<path fill="#FFFFFF" d="M390.8,314H213.1c-4.4,0-8-3.6-8-8v-23c0-4.4,3.6-8,8-8h177.6c4.4,0,8,3.6,8,8v23
			C398.8,310.4,395.2,314,390.8,314z M213.1,277c-3.3,0-6,2.7-6,6v23c0,3.3,2.7,6,6,6h177.6c3.3,0,6-2.7,6-6v-23c0-3.3-2.7-6-6-6
			H213.1z"/>
		<path fill="#FFFFFF" d="M390.8,362.2H213.1c-4.4,0-8-3.6-8-8v-23c0-4.4,3.6-8,8-8h177.6c4.4,0,8,3.6,8,8v23
			C398.8,358.6,395.2,362.2,390.8,362.2z M213.1,325.1c-3.3,0-6,2.7-6,6v23c0,3.3,2.7,6,6,6h177.6c3.3,0,6-2.7,6-6v-23
			c0-3.3-2.7-6-6-6H213.1z"/>
		<path fill="#FFFFFF" d="M350.4,298h-96.9c-1.4,0-2.6-1.2-2.6-2.6v-1.9c0-1.4,1.2-2.6,2.6-2.6h96.9c1.4,0,2.6,1.2,2.6,2.6v1.9
			C353,296.9,351.8,298,350.4,298z M253.5,293c-0.3,0-0.6,0.3-0.6,0.6v1.9c0,0.3,0.3,0.6,0.6,0.6h96.9c0.3,0,0.6-0.3,0.6-0.6v-1.9
			c0-0.3-0.3-0.6-0.6-0.6H253.5z"/>
		<path fill="#FFFFFF" d="M350.4,346.2h-96.9c-1.4,0-2.6-1.2-2.6-2.6v-1.9c0-1.4,1.2-2.6,2.6-2.6h96.9c1.4,0,2.6,1.2,2.6,2.6v1.9
			C353,345,351.8,346.2,350.4,346.2z M253.5,341.1c-0.3,0-0.6,0.3-0.6,0.6v1.9c0,0.3,0.3,0.6,0.6,0.6h96.9c0.3,0,0.6-0.3,0.6-0.6
			v-1.9c0-0.3-0.3-0.6-0.6-0.6H253.5z"/>
	</g>
</g>
<g id="Background_Simple" display="none">
	<g display="inline">
		<path fill="#407BFF" d="M282.2,153.5c-43.1-34.2-68.7-73.3-121.6-87.8c-44.2-12.1-66.4,6.8-78,41.2
			c-28.6,84.9,50,178.5,145.3,218.2c90.3,37.6,162,7.3,182.6-67c7.8-28.1,7.1-76.9-39.1-90.7C337.6,157.2,319,182.6,282.2,153.5z"/>
		<path opacity="0.9" fill="#FFFFFF" d="M282.2,153.5c-43.1-34.2-68.7-73.3-121.6-87.8c-44.2-12.1-66.4,6.8-78,41.2
			c-28.6,84.9,50,178.5,145.3,218.2c90.3,37.6,162,7.3,182.6-67c7.8-28.1,7.1-76.9-39.1-90.7C337.6,157.2,319,182.6,282.2,153.5z"/>
	</g>
</g>
<g id="Shadow_1_">
	<ellipse id="_x3C_Path_x3E__343_" fill="#F5F5F5" cx="245" cy="416.2" rx="193.9" ry="11.3"/>
</g>
<g id="Smartphone">
	<g>
		
			<rect x="374.6" y="167.8" transform="matrix(0.9979 6.449471e-002 -6.449471e-002 0.9979 11.7914 -23.8354)" fill="#407BFF" width="1" height="5.9"/>
		
			<rect x="375.7" y="143.9" transform="matrix(0.9979 6.438870e-002 -6.438870e-002 0.9979 10.6678 -23.904)" fill="#407BFF" width="1" height="19.4"/>
		<path fill="#567DF4" d="M364.4,115.7H246.9c-6.2,0-11.5,5-11.9,11.2l-15.2,234.5c-0.4,6.2,4.3,11.2,10.5,11.2h117.6
			c6.2,0,11.5-5,11.9-11.2l15.2-234.5C375.3,120.8,370.6,115.7,364.4,115.7z"/>
		<path opacity="0.7" fill="#FFFFFF" d="M360.7,115.7H246.9c-6.2,0-11.5,5-11.9,11.2l-15.2,234.5c-0.4,6.2,4.3,11.2,10.5,11.2h113.8
			c6.2,0,11.5-5,11.9-11.2l15.2-234.5C371.6,120.8,366.9,115.7,360.7,115.7z"/>
		<path fill="#FFFFFF" d="M351.1,355.3H225.9c-2,0-3.5-1.7-3.4-3.6l13.7-212.2c0.1-1.8,1.6-3.2,3.4-3.2h125.2c2,0,3.5,1.7,3.4,3.6
			l-13.7,212.2C354.4,353.9,352.9,355.3,351.1,355.3z"/>
		<path fill="#FFFFFF" d="M323.3,129.3h-45.5c-1,0-1.8-0.8-1.7-1.8l0,0c0.1-1,0.9-1.8,1.9-1.8h45.5c1,0,1.8,0.8,1.7,1.8l0,0
			C325.2,128.5,324.3,129.3,323.3,129.3z"/>
		<path fill="#FFFFFF" d="M287.8,364.2c-0.1,2.5-2.2,4.5-4.7,4.5c-2.5,0-4.4-2-4.2-4.5c0.1-2.5,2.2-4.5,4.7-4.5
			C286,359.8,287.9,361.8,287.8,364.2z"/>
	</g>
	<path opacity="0.2" fill="#FA699E" d="M337.5,195H230.6l-6.8,104.9h113.7c6.2,0,11.2-5,11.2-11.2v-82.5
		C348.7,200.1,343.6,195,337.5,195z"/>
	<g>
		<path fill="#FA699E" d="M327.5,290.6h-131c-6.2,0-11.2-5-11.2-11.2v-82.5c0-6.2,5-11.2,11.2-11.2h131c6.2,0,11.2,5,11.2,11.2v82.5
			C338.7,285.6,333.7,290.6,327.5,290.6z"/>
		<g>
			<path fill="#FA699E" d="M181.7,184.5c-0.3,0-0.5-0.1-0.7-0.3l-1.8-1.8c-0.4-0.4-0.4-1,0-1.4c0.4-0.4,1-0.4,1.4,0l1.8,1.8
				c0.4,0.4,0.4,1,0,1.4C182.2,184.4,182,184.5,181.7,184.5z"/>
			<path fill="#FA699E" d="M179,190.8h-2.5c-0.6,0-1-0.4-1-1c0-0.6,0.4-1,1-1h2.5c0.6,0,1,0.4,1,1C180,190.3,179.6,190.8,179,190.8z
				"/>
			<path fill="#FA699E" d="M188.1,181.8c-0.5,0-1-0.4-1-0.9l-0.2-2.5c0-0.6,0.4-1,0.9-1.1c0.6,0,1,0.4,1.1,0.9l0.2,2.5
				C189.1,181.3,188.7,181.8,188.1,181.8C188.1,181.8,188.1,181.8,188.1,181.8z"/>
		</g>
		<polygon fill="#FA699E" points="273.2,279.8 313.4,320.1 313.4,279.8 		"/>
		<g>
			<path fill="#FFFFFF" d="M284.2,262.2l-1.9-8.5c-0.5-2.2-0.5-4.5,0-6.8l2.7-12.1c2.4-10.8-3.1-21.6-12.5-26.3
				c0.1-0.2,0.2-0.4,0.2-0.7c0.7-3.1-1.2-6.1-4.3-6.8c-3.1-0.7-6.1,1.2-6.8,4.3c-0.1,0.2-0.1,0.5-0.1,0.7
				c-10.6,0.2-20.2,7.7-22.6,18.4l-2.7,12.1c-0.5,2.2-1.5,4.3-2.9,6.1l-5.4,6.9c-2.3,2.9-0.8,7.2,2.9,8.1l47.5,10.6
				C281.8,269.1,285,265.8,284.2,262.2z"/>
			<path fill="#FFFFFF" d="M248.3,264.8c-1.6-0.4-3,1-2.7,2.6c0.5,3.2,3,5.9,6.3,6.6c3.4,0.8,6.7-0.7,8.5-3.3
				c0.9-1.3,0.2-3.1-1.3-3.5L248.3,264.8z"/>
		</g>
		<g>
			<path fill="#FFFFFF" d="M211.9,248c-0.5,0-1-0.2-1.2-0.7c-4.8-7.1-6.5-15.7-4.8-24.1c1.7-8.4,6.5-15.7,13.6-20.4
				c0.7-0.5,1.6-0.3,2.1,0.4c0.5,0.7,0.3,1.6-0.4,2.1c-6.5,4.3-10.9,10.9-12.4,18.5c-1.5,7.6,0,15.4,4.3,21.8
				c0.5,0.7,0.3,1.6-0.4,2.1C212.4,247.9,212.2,248,211.9,248z"/>
			<path fill="#FFFFFF" d="M218.2,243.7c-0.5,0-1-0.2-1.2-0.7c-3.6-5.4-4.9-11.9-3.6-18.3c1.3-6.4,5-11.9,10.4-15.5
				c0.7-0.5,1.6-0.3,2.1,0.4c0.5,0.7,0.3,1.6-0.4,2.1c-4.8,3.2-8,8-9.1,13.6c-1.1,5.6,0,11.3,3.2,16.1c0.5,0.7,0.3,1.6-0.4,2.1
				C218.8,243.7,218.5,243.7,218.2,243.7z"/>
			<path fill="#FFFFFF" d="M224.6,239.5c-0.5,0-1-0.2-1.2-0.7c-2.5-3.7-3.4-8.2-2.5-12.6c0.9-4.4,3.4-8.2,7.1-10.7
				c0.7-0.5,1.6-0.3,2.1,0.4c0.5,0.7,0.3,1.6-0.4,2.1c-3.1,2-5.1,5.2-5.9,8.8c-0.7,3.6,0,7.3,2.1,10.4c0.5,0.7,0.3,1.6-0.4,2.1
				C225.2,239.4,224.9,239.5,224.6,239.5z"/>
		</g>
		<g>
			<path fill="#FFFFFF" d="M298.3,269.1c-0.5,0-1.1-0.3-1.3-0.8c-0.4-0.7-0.1-1.6,0.6-2c6.9-3.6,12-9.6,14.4-17
				c2.4-7.4,1.7-15.3-1.9-22.2c-0.4-0.7-0.1-1.6,0.6-2c0.7-0.4,1.6-0.1,2,0.6c3.9,7.6,4.7,16.3,2.1,24.5
				c-2.6,8.2-8.2,14.8-15.8,18.8C298.8,269,298.6,269.1,298.3,269.1z"/>
			<path fill="#FFFFFF" d="M294.8,262.3c-0.5,0-1.1-0.3-1.3-0.8c-0.4-0.7-0.1-1.6,0.6-2c5.1-2.6,8.8-7.1,10.6-12.5
				c1.7-5.5,1.3-11.3-1.4-16.3c-0.4-0.7-0.1-1.6,0.6-2c0.7-0.4,1.6-0.1,2,0.6c3,5.8,3.6,12.4,1.6,18.6c-2,6.2-6.3,11.3-12.1,14.3
				C295.3,262.2,295.1,262.3,294.8,262.3z"/>
			<path fill="#FFFFFF" d="M291.3,255.5c-0.5,0-1.1-0.3-1.3-0.8c-0.4-0.7-0.1-1.6,0.6-2c3.3-1.7,5.7-4.6,6.8-8.1
				c1.1-3.5,0.8-7.2-0.9-10.5c-0.4-0.7-0.1-1.6,0.6-2c0.7-0.4,1.6-0.1,2,0.6c4.2,8.2,1,18.4-7.2,22.6
				C291.8,255.5,291.6,255.5,291.3,255.5z"/>
		</g>
	</g>
</g>
<g id="Character_1_">
	<g>
		<path fill="#407BFF" d="M203.4,125.8h-7.6c-0.4,0-0.8,0.3-0.8,0.7l-1.6,15.2c0,0.4,0.3,0.7,0.7,0.7h7.6c0.4,0,0.8-0.3,0.8-0.7
			l1.6-15.2C204.1,126.2,203.8,125.8,203.4,125.8z"/>
		<path opacity="0.4" fill="#FFFFFF" d="M202.7,125.8h-7c-0.4,0-0.8,0.3-0.8,0.7l-1.6,15.2c0,0.4,0.3,0.7,0.7,0.7h7
			c0.4,0,0.8-0.3,0.8-0.7l1.6-15.2C203.4,126.2,203.1,125.8,202.7,125.8z"/>
	</g>
	<path fill="#407BFF" d="M165.1,407.6c1,0,2-0.1,2.4-0.6c0.1-0.2,0.2-0.4-0.1-0.8c-0.1-0.2-0.3-0.4-0.6-0.4
		c-1.4-0.4-4.1,1.2-4.2,1.3c-0.1,0-0.1,0.1-0.1,0.2c0,0.1,0.1,0.1,0.2,0.2C163.1,407.5,164.1,407.6,165.1,407.6z M166.3,406.1
		c0.1,0,0.3,0,0.4,0c0.2,0,0.3,0.1,0.4,0.3c0.1,0.2,0.1,0.4,0.1,0.4c-0.4,0.5-2.4,0.5-3.9,0.3C163.9,406.8,165.3,406.1,166.3,406.1z
		"/>
	<path fill="#407BFF" d="M162.6,407.4C162.6,407.4,162.7,407.4,162.6,407.4c1-0.5,2.9-2.2,2.7-3.1c0-0.2-0.2-0.5-0.7-0.5
		c-0.4,0-0.7,0.1-1,0.3c-1,0.8-1.1,3-1.1,3.1c0,0.1,0,0.1,0.1,0.2C162.5,407.4,162.6,407.4,162.6,407.4z M164.4,404.1
		c0,0,0.1,0,0.1,0c0.3,0,0.4,0.2,0.4,0.2c0.1,0.5-1.1,1.9-2.1,2.5c0.1-0.6,0.3-1.9,1-2.5C164,404.2,164.2,404.1,164.4,404.1z"/>
	<polygon fill="#FF8B7B" points="153.7,407.2 161.8,407.2 161.8,388.5 153.7,388.5 	"/>
	<polygon fill="#FF8B7B" points="94.9,398.3 103,399.2 108.3,381 100.2,380.1 	"/>
	<path fill="#407BFF" d="M106.8,401c1,0.3,2,0.4,2.5,0c0.1-0.1,0.3-0.4,0.2-0.8c-0.1-0.2-0.2-0.4-0.5-0.6c-1.2-0.7-4.3,0.2-4.5,0.2
		c-0.1,0-0.1,0.1-0.1,0.2c0,0.1,0,0.2,0.1,0.2C104.9,400.4,105.8,400.8,106.8,401z M108.4,399.8c0.1,0,0.3,0.1,0.4,0.1
		c0.2,0.1,0.3,0.2,0.3,0.4c0.1,0.3,0,0.4-0.1,0.4c-0.5,0.4-2.5-0.1-3.9-0.7C105.9,399.9,107.5,399.6,108.4,399.8z"/>
	<path fill="#407BFF" d="M104.4,400.2C104.5,400.2,104.5,400.2,104.4,400.2c1.1-0.2,3.4-1.4,3.4-2.3c0-0.2-0.1-0.5-0.6-0.7
		c-0.4-0.1-0.7-0.1-1.1,0.1c-1.2,0.6-1.8,2.6-1.9,2.7c0,0.1,0,0.1,0,0.2C104.4,400.2,104.4,400.2,104.4,400.2z M107.1,397.5
		c0,0,0.1,0,0.1,0c0.3,0.1,0.3,0.3,0.3,0.3c0,0.6-1.6,1.6-2.7,1.9c0.2-0.6,0.8-1.8,1.6-2.2C106.6,397.5,106.8,397.4,107.1,397.5z"/>
	<path fill="#263238" d="M103.5,398.4l-8.8-2.5c-0.3-0.1-0.7,0-0.8,0.3l-3.3,6.5c-0.3,0.7,0.1,1.5,0.8,1.7c3.1,0.8,4.6,1.1,8.5,2.2
		c2.4,0.7,7.3,2.3,10.6,3.3c3.2,0.9,4.5-2.2,3.3-2.8c-5.7-3.1-7.6-5.5-9.1-7.8C104.4,398.9,103.9,398.6,103.5,398.4z"/>
	<path fill="#263238" d="M161.7,406.3h-8.8c-0.3,0-0.6,0.2-0.7,0.6l-1.3,7.2c-0.1,0.7,0.5,1.5,1.2,1.4c3.2-0.1,7.8-0.2,11.8-0.2
		c4.7,0,7.3,0.3,12.8,0.3c3.3,0,4.1-3.4,2.7-3.7c-6.4-1.4-10.1-1.5-15.7-4.9C163.1,406.6,162.4,406.3,161.7,406.3z"/>
	<g>
		<polygon opacity="0.2" points="161.8,388.5 161.8,398.2 153.7,398.2 153.7,388.5 		"/>
		<polygon opacity="0.2" points="100.2,380.1 108.3,381 105.4,391.1 97.5,389.5 		"/>
	</g>
	<path fill="#567DF4" d="M148.5,202c0,0-4.5,61.1-8.5,84.3c-4.4,25.4-30.1,103.1-30.1,103.1l-14.7-2.7c0,0,18.5-73,20.6-98.1
		c2.2-27.3,4.9-83.5,4.9-83.5L148.5,202z"/>
	<path opacity="0.3" d="M140.9,227.4c0.8-3.4,2.6,0.9,4.8,8.2c-1.6,18.1-3.7,39.2-5.7,50.7c-0.5,2.6-1.1,5.7-2,9.3
		C138.7,269.7,138.8,236.5,140.9,227.4z"/>
	<path fill="#567DF4" d="M163.7,200.3c0,0,5.9,61.5,6.1,86.2c0.2,25.7-5.1,109.8-5.1,109.8H151c0,0-4.1-82.6-5.8-107.8
		c-1.9-27.5-9.7-85-9.7-85L163.7,200.3z"/>
	<g>
		<path fill="#263238" d="M113,384.5c0.1,0-2.3,5.3-2.3,5.3l-16.5-3l1-4.9L113,384.5z"/>
	</g>
	<g>
		<path fill="#263238" d="M167.1,390.8c0.1,0-0.5,5.7-0.5,5.7h-16.7l-0.7-5.1L167.1,390.8z"/>
	</g>
	<path fill="#FF8B7B" d="M121.1,145.6c-1.1,2.1-2.3,4.4-3.4,6.6l-3.4,6.7c-1.1,2.2-2.2,4.5-3.2,6.7c-1,2.2-2,4.5-2.8,6.7l-0.1-3.5
		c0.6,1.8,1.2,3.5,2.1,5.3c0.4,0.9,0.9,1.7,1.3,2.6c0.5,0.8,1,1.7,1.5,2.5c1,1.7,2.2,3.3,3.4,4.9c0.6,0.8,1.2,1.6,1.9,2.4
		c0.6,0.7,1.4,1.5,2,2.2l0.2,0.2c1.1,1.2,1,3-0.2,4.1c-0.9,0.8-2.3,1-3.3,0.4c-1.1-0.6-2.1-1.2-3-1.9c-0.9-0.7-1.9-1.4-2.8-2.1
		c-1.8-1.5-3.5-3.1-5.1-4.8c-1.6-1.7-3.1-3.6-4.3-5.6c-1.3-2-2.5-4.1-3.5-6.4c-0.4-1-0.5-2.1-0.2-3l0.1-0.5c0.8-2.6,1.6-5.1,2.6-7.6
		c0.9-2.5,1.9-4.9,3-7.3c1.1-2.4,2.2-4.8,3.3-7.1c1.2-2.3,2.4-4.6,3.7-6.9c1.6-2.8,5.2-3.7,7.9-2.1
		C121.6,139.4,122.6,142.8,121.1,145.6L121.1,145.6z"/>
	<g>
		<path fill="#263238" d="M126.9,142c0.4,7.6-8.3,21.6-8.3,21.6l-17.8-8.9c0,0,3-9.7,9.9-17.2C120.1,127.1,126.5,135,126.9,142z"/>
	</g>
	<path fill="#FF8B7B" d="M114.8,191.7l3.6,6l7.5-4.8c0,0-2-3.8-5.8-5.2c-1.1-0.4-2.4,0.1-3,1.3L114.8,191.7z"/>
	<path fill="#FF8B7B" d="M121.4,200.3l3.5-0.6c1.2-0.2,2-1.4,1.8-2.6l-0.8-4l-7.5,4.8l0.5,1.2C119.3,199.9,120.3,200.5,121.4,200.3z
		"/>
	<path fill="#263238" d="M142.4,103.7c0.1,0.7,0.5,1.2,0.9,1.1c0.4,0,0.7-0.6,0.6-1.2c-0.1-0.7-0.5-1.2-0.9-1.1
		C142.6,102.4,142.3,103,142.4,103.7z"/>
	<path fill="#FF5652" d="M142.8,104.8c0,0,1.9,3.7,3.8,5.4c-1,1.2-3,0.8-3,0.8L142.8,104.8z"/>
	<path fill="#263238" d="M139.6,100.2c0.1,0,0.2,0,0.3-0.1c1.2-1.1,2.6-0.7,2.6-0.7c0.2,0.1,0.4-0.1,0.5-0.3
		c0.1-0.2-0.1-0.4-0.3-0.5c-0.1,0-1.8-0.5-3.3,0.9c-0.2,0.1-0.2,0.4,0,0.5C139.4,100.2,139.5,100.2,139.6,100.2z"/>
	<path fill="#FF8B7B" d="M122.3,110.9c1.9,5.8,4.5,16.5,0.8,20.7c0,0,2.4,5.8,13.3,4.9c12.1-1,5-6.5,5-6.5c-6.8-1-7.2-5.9-6.7-10.6
		L122.3,110.9z"/>
	<path fill="#407BFF" d="M120.5,133.8c-1.1-1.8-2.4-3.9-0.3-4.7c2.4-0.8,15.5-2.2,20.2-1.1c4.7,1.2,3.7,5,3.7,5L120.5,133.8z"/>
	<path fill="#FF8B7B" d="M159.2,136.2c1.7,1.6,3.6,3.3,5.4,4.9c1.8,1.6,3.7,3.2,5.6,4.8c1.9,1.6,3.8,3.1,5.7,4.5
		c1.9,1.4,3.9,2.8,5.9,4l-4-0.4c1.5-0.4,3.1-1.1,4.6-2.2c1.6-1.1,3.1-2.4,4.6-3.9c1.5-1.5,2.9-3.1,4.2-4.9c0.7-0.9,1.3-1.7,2-2.7
		c0.6-0.9,1.3-1.9,1.8-2.7l0.1-0.2c0.9-1.3,2.7-1.7,4-0.8c1.1,0.7,1.5,2,1.2,3.2c-0.4,1.3-0.8,2.4-1.2,3.6c-0.5,1.2-0.9,2.3-1.5,3.4
		c-1.1,2.2-2.3,4.4-3.8,6.5c-1.5,2.1-3.2,4.1-5.3,6c-2.1,1.8-4.6,3.5-7.5,4.5c-1.3,0.4-2.6,0.3-3.7-0.2l-0.3-0.2
		c-2.5-1.2-4.9-2.6-7.2-4.1c-2.3-1.5-4.5-3-6.6-4.6c-2.1-1.6-4.2-3.3-6.2-5c-2-1.8-3.9-3.5-5.9-5.5c-2.2-2.3-2.2-6,0.1-8.2
		C153.3,134.1,156.8,134,159.2,136.2L159.2,136.2z"/>
	<g>
		<path fill="#263238" d="M153.1,131c0,0,10.1,9.8,11.2,70.3c-16.1,3.9-31.6,5.3-43.6,3.8c-0.6-7.6-1.4-33.9-9.1-61.7
			c-1.4-5,1.7-10,6.8-11c1.5-0.3,3.1-0.6,4.7-0.8c5.5-0.7,13.4-1.6,18.3-1.5C147.9,130.1,153.1,131,153.1,131z"/>
	</g>
	<g>
		<path fill="#263238" d="M145.2,141.5c1,7.6,14,22.1,14,22.1l15.4-16c0,0-6.7-7.2-14.8-13.3C148.5,125.9,144.3,134.5,145.2,141.5z"
			/>
	</g>
	<path fill="#FF8B7B" d="M199.3,142.7l5.2-4.7l-6.2-6.4c0,0-3.3,2.7-4,6.7c-0.2,1.2,0.6,2.4,1.9,2.7L199.3,142.7z"/>
	<path fill="#FF8B7B" d="M206.4,134.5l-1.3-3.3c-0.5-1.2-1.8-1.7-3-1.2l-3.8,1.6l6.2,6.4l1.1-0.7
		C206.4,136.6,206.8,135.5,206.4,134.5z"/>
	<path fill="#FF8B7B" d="M120.7,104c1.4,8,1.9,12.7,6.4,16.6c6.8,5.7,16.1,1.3,17-6.9c0.8-7.4-1.7-19.2-9.8-21.8
		C126.3,89.3,119.3,96,120.7,104z"/>
	<path fill="#263238" d="M136.5,106.9c2.8,0.6,5-2.6,5.3-3.5c-1.4,0.1-3.8-0.6-4.3-1.2c1.5,0.1,3-1.7,3.1-2.4
		c-1.6-0.2-3.4-1.6-3.9-2.6c2.4,0,5.4-4.3,2.7-8.2c-2.7-3.8-13.8-0.6-15.4-3.4c-2.3,1.4-0.3,3.2-0.3,3.2s-15.8,3-8.5,9.1
		c-5.3,0.5-6.1,6.8-1.6,10c4.5,3.2,4.7,5.3,2.9,5.1c0.7,1.4,3.9,1.5,4.1,0.2c0.8,2.8,2.9,6.5,7.9,5.9
		C133.4,118.5,138.3,111.6,136.5,106.9z"/>
	<path fill="#263238" d="M116.6,97c-3.8,0.5-5.5-1.6-4.5-3.5C107.4,95.9,112.5,101.2,116.6,97z"/>
	<path fill="#FF8B7B" d="M132.6,105.7c0.6,1.7,2,3.2,3.3,4.1c2,1.3,3.8,0,3.5-2c-0.3-1.8-1.7-4.7-3.8-5.3
		C133.5,102,131.9,103.7,132.6,105.7z"/>
</g>
<g id="Plant">
	<g>
		<g>
			<g>
				<path fill="#567DF4" d="M386.8,387.5c-7.4-17.5-10.4-38-1.9-37.1c8.7,0.8,7.7,31.8,9.1,35.2
					C391.2,387.9,386.8,387.5,386.8,387.5z"/>
				<path fill="#567DF4" d="M389.2,354.4c-1.8,6.7-3.7,16.9-5.2,25.7c0.8,2.5,1.8,5,2.8,7.5c0,0,4.4,0.4,7.2-1.9
					C392.8,382.9,393.2,363.1,389.2,354.4z"/>
			</g>
			<path fill="#567DF4" d="M389.2,384.3c-2.3-37.1,4-71.5,20.6-69.9c14.3,1.3-6.5,63.8-6.1,71C397.2,387.9,389.2,384.3,389.2,384.3z
				"/>
			<path fill="#567DF4" d="M400,384.1c2.6-26.7,16.7-57.8,22.7-47.4c7.7,13.2-12,44.6-12.5,49.8C405.3,387.6,400,384.1,400,384.1z"
				/>
			<path fill="#407BFF" d="M397.4,324.3c-1.7-0.3-2.6-1.3-2.5-2.8c0.1-1.7,1.5-3.3,2.8-3.4c0.6,0,1.7,0.3,1.9,2.6l-1,0.1
				c-0.1-1.1-0.5-1.7-0.9-1.7c0,0,0,0,0,0c-0.7,0-1.7,1.2-1.8,2.4c-0.1,1,0.5,1.6,1.7,1.8L397.4,324.3z"/>
			<path fill="#407BFF" d="M415.3,331c-0.5,0-1.2-0.2-2-0.8l0.5-0.8c0.9,0.6,1.6,0.8,1.9,0.4c0.4-0.5,0.1-2.1-0.7-2.9
				c-0.7-0.7-1.5-0.6-2.4,0.2l-0.7-0.8c1.3-1.1,2.7-1.2,3.8-0.1c1.2,1.2,1.6,3.3,0.8,4.3C416.3,330.7,416,331,415.3,331z"/>
			<path fill="#407BFF" d="M390.8,346.1c-1.4,0-2.3-0.7-2.6-2c-0.4-1.6,0.4-3.6,1.6-4.1c0.6-0.2,1.7-0.2,2.6,1.9l-0.9,0.4
				c-0.5-1-1-1.5-1.4-1.4c-0.6,0.2-1.3,1.7-1,2.9c0.2,0.9,1,1.3,2.1,1.2l0.1,1C391.2,346.1,391,346.1,390.8,346.1z"/>
			<path fill="#407BFF" d="M380.2,366.8c-1,0-1.8-0.5-2.3-1.5c-0.7-1.5-0.3-3.7,0.8-4.3c0.5-0.3,1.6-0.5,2.9,1.4l-0.8,0.6
				c-0.6-0.9-1.2-1.3-1.6-1.1c-0.6,0.3-0.9,1.9-0.4,3c0.4,0.9,1.2,1.1,2.3,0.7l0.3,0.9C381,366.7,380.6,366.8,380.2,366.8z"/>
			<path fill="#FFFFFF" d="M397.9,336.6c-0.1,0-0.2,0-0.3-0.1c-1.4-1-1.9-2.3-1.3-3.6c0.6-1.4,2.1-2.3,3.5-2
				c0.6,0.1,2.1,0.7,2.2,3.3c0,0.3-0.2,0.5-0.5,0.5c-0.3,0-0.5-0.2-0.5-0.5c-0.1-1.4-0.5-2.2-1.3-2.4c-0.9-0.2-2,0.5-2.4,1.4
				c-0.4,0.9,0,1.7,1,2.4c0.2,0.2,0.3,0.5,0.1,0.7C398.2,336.5,398,336.6,397.9,336.6z"/>
			<path fill="#FFFFFF" d="M409.7,363.6c-0.2,0-0.4-0.2-0.5-0.4c-0.1-0.3,0.1-0.5,0.4-0.6c1.4-0.3,2.1-0.9,2.1-1.7
				c0-0.9-0.8-1.9-1.8-2.1c-0.9-0.2-1.7,0.3-2.2,1.4c-0.1,0.3-0.4,0.3-0.7,0.2c-0.2-0.1-0.4-0.4-0.2-0.7c0.7-1.5,2-2.2,3.4-1.9
				c1.4,0.3,2.6,1.7,2.6,3.1c0,0.6-0.3,2.1-2.9,2.7C409.8,363.6,409.8,363.6,409.7,363.6z"/>
			<path fill="#407BFF" d="M423.8,355.2c-0.6,0-1.3-0.3-2.2-1.6l0.8-0.6c0.6,0.9,1.2,1.3,1.6,1.1c0.6-0.3,0.9-1.9,0.5-3
				c-0.4-0.9-1.2-1.2-2.3-0.8l-0.3-0.9c1.6-0.5,2.9,0,3.5,1.3c0.7,1.5,0.2,3.7-0.9,4.3C424.3,355.1,424.1,355.2,423.8,355.2z"/>
		</g>
		<path fill="#263238" d="M420.8,393.9c0-5.6-2-10.6-5.4-14.5c0.7-0.1,1.2-0.7,1.2-1.4c0-0.8-0.7-1.5-1.5-1.5h-33.5
			c-0.8,0-1.5,0.7-1.5,1.5c0,0.7,0.5,1.3,1.2,1.4c-3.4,3.9-5.4,9-5.4,14.5c0,8.6,4.8,16,11.9,19.8c-0.5,0.3-0.9,0.8-0.9,1.4
			c0,0.9,0.7,1.6,1.6,1.6h19.4c0.9,0,1.6-0.7,1.6-1.6c0-0.6-0.4-1.2-0.9-1.4C416,409.9,420.8,402.5,420.8,393.9z"/>
	</g>
</g>
</svg>
