<?xml version="1.0" encoding="utf-8"?>
<!-- Generator: Adobe Illustrator 18.1.1, SVG Export Plug-In . SVG Version: 6.00 Build 0)  -->
<svg version="1.1" xmlns="http://www.w3.org/2000/svg" xmlns:xlink="http://www.w3.org/1999/xlink" x="0px" y="0px"
	 viewBox="0 0 500 500" enable-background="new 0 0 500 500" xml:space="preserve">
<g id="Background_Complete">
	<g>
		<g>
			<g>
				<path fill="#F5F5F5" d="M424.1,226.8h-250c-6,0-10.8-4.8-10.8-10.8V84.7c0-6,4.8-10.8,10.8-10.8h250c6,0,10.8,4.8,10.8,10.8V216
					C435,221.9,430.1,226.8,424.1,226.8z"/>
				<path fill="#E0E0E0" d="M424.1,227.8h-250c-6.5,0-11.8-5.3-11.8-11.8V84.7c0-6.5,5.3-11.8,11.8-11.8h250
					c6.5,0,11.8,5.3,11.8,11.8V216C436,222.5,430.7,227.8,424.1,227.8z M174.1,74.8c-5.4,0-9.8,4.4-9.8,9.8V216
					c0,5.4,4.4,9.8,9.8,9.8h250c5.4,0,9.8-4.4,9.8-9.8V84.7c0-5.4-4.4-9.8-9.8-9.8H174.1z"/>
			</g>
			<g>
				<path fill="#E0E0E0" d="M162.6,167.7h43V190h39.2v26.2h133v-41.5h27.4v-54.1h29.1v91c0,8.3-6.7,14.9-14.9,14.9H178.9
					c-9,0-16.3-7.3-16.3-16.3V167.7z"/>
			</g>
		</g>
		<g>
			<g>
				<path fill="#EBEBEB" d="M178,248.3c0,1.5-0.4,27.6-0.9,71.8l0,0.1H177c-34.1,0-78.9,0-128.4,0h-0.1v-0.1c0-4.2,0-8.8,0-13.3
					c0-26.9,0-52.6,0-76.2v-0.1l0.1,0c26.9,0,51.1,0,71.4,0l0.1,0l0,0.1c0.2,2.5,1.2,4.9,2.5,6.9c1.4,2,3.1,3.6,5,5
					c3.8,2.6,8.1,3.8,12,4.4c4,0.6,7.8,0.7,11.2,0.8c3.5,0.1,6.6,0.2,9.5,0.2C171.6,248.2,177.3,248.3,178,248.3
					c-0.7,0-6.4-0.1-17.7-0.4c-2.8-0.1-6-0.1-9.5-0.2c-3.5-0.1-7.2-0.1-11.3-0.7c-4-0.6-8.3-1.8-12.1-4.4c-1.9-1.3-3.6-3-5-5
					c-1.4-2-2.3-4.4-2.6-7l0.1,0.1c-20.3,0-44.5,0-71.4,0l0.1-0.1c0,23.6,0,49.3,0,76.2c0,4.6,0,9.1,0,13.3l-0.1-0.1
					c49.5,0,94.3,0,128.4,0l-0.1,0.1C177.6,275.9,178,249.9,178,248.3z"/>
			</g>
		</g>
		<g>
			<g>
				<g>
					<path fill="#E0E0E0" d="M259.3,438.4c0,0,0-0.5,0-1.4c0-0.9,0-2.3,0-4c0-3.5,0-8.7-0.1-15.4c0-13.3-0.1-32.4-0.1-55.9l0.2,0.2
						c-35.2,0-81,0-130.9,0.1h0l0.3-0.3c0,27.2,0,53.1,0,76.7l-0.2-0.2c38.4,0,71,0.1,94.2,0.1c11.6,0,20.7,0.1,27,0.1
						c3.1,0,5.6,0,7.2,0c0.8,0,1.4,0,1.9,0C259.1,438.4,259.3,438.4,259.3,438.4s-0.2,0-0.6,0c-0.4,0-1,0-1.8,0c-1.6,0-4,0-7.2,0
						c-6.3,0-15.4,0-27,0.1c-23.2,0-55.9,0.1-94.3,0.1l-0.2,0l0-0.2c0-23.6,0-49.5,0-76.7l0-0.3h0.3h0c49.9,0,95.7,0,130.9,0.1
						l0.2,0l0,0.2c0,23.6-0.1,42.7-0.1,56.1c0,6.6,0,11.8-0.1,15.3c0,1.7,0,3.1,0,4C259.3,437.9,259.3,438.4,259.3,438.4z"/>
				</g>
			</g>
			<g>
				<g>
					<path fill="#E0E0E0" d="M253.5,366.3c0,0.1-0.6,0.1-1,0.8c-0.2,0.3-0.3,0.9-0.1,1.3c0.2,0.5,0.7,0.8,1.3,0.7
						c0.6,0,1.1-0.4,1.2-0.9c0.1-0.5,0-1-0.3-1.3C254.1,366.4,253.5,366.4,253.5,366.3c0,0,0.1-0.1,0.4-0.1c0.3,0,0.7,0.2,1,0.6
						c0.3,0.4,0.6,1,0.4,1.7c-0.2,0.7-0.9,1.2-1.7,1.3c-0.8,0.1-1.6-0.4-1.8-1.1c-0.2-0.7,0-1.3,0.3-1.7c0.3-0.4,0.7-0.6,0.9-0.7
						C253.3,366.2,253.5,366.3,253.5,366.3z"/>
				</g>
			</g>
			<g>
				<g>
					<path fill="#E0E0E0" d="M134,366.3c0,0.1-0.6,0.1-1,0.8c-0.2,0.3-0.3,0.9-0.1,1.3c0.2,0.5,0.7,0.8,1.3,0.7
						c0.6,0,1.1-0.4,1.2-0.9c0.1-0.5,0-1-0.3-1.3C134.6,366.4,134,366.4,134,366.3c0,0,0.1-0.1,0.4-0.1c0.3,0,0.7,0.2,1,0.6
						c0.3,0.4,0.6,1,0.4,1.7c-0.2,0.7-0.9,1.2-1.7,1.3c-0.8,0.1-1.6-0.4-1.8-1.1c-0.2-0.7,0-1.3,0.3-1.7c0.3-0.4,0.7-0.6,0.9-0.7
						C133.9,366.2,134,366.3,134,366.3z"/>
				</g>
			</g>
			<g>
				<g>
					<path fill="#E0E0E0" d="M253.6,431.3c0,0.1-0.6,0.1-1,0.8c-0.2,0.3-0.3,0.9-0.1,1.3c0.2,0.5,0.7,0.8,1.3,0.7
						c0.6,0,1.1-0.4,1.2-0.9c0.1-0.5,0-1-0.3-1.3C254.3,431.3,253.6,431.4,253.6,431.3c0,0,0.1-0.1,0.4-0.1c0.3,0,0.7,0.2,1,0.6
						c0.3,0.4,0.6,1,0.4,1.7c-0.2,0.7-0.9,1.2-1.7,1.3c-0.8,0.1-1.6-0.4-1.8-1.1c-0.2-0.7,0-1.3,0.3-1.7c0.3-0.4,0.7-0.6,0.9-0.7
						C253.5,431.2,253.6,431.3,253.6,431.3z"/>
				</g>
			</g>
			<g>
				<g>
					<path fill="#E0E0E0" d="M270.9,366.3c0,0.1-0.6,0.1-1,0.8c-0.2,0.3-0.3,0.9-0.1,1.3c0.2,0.5,0.7,0.8,1.3,0.7
						c0.6,0,1.1-0.4,1.2-0.9c0.1-0.5,0-1-0.3-1.3C271.5,366.4,270.9,366.4,270.9,366.3c0,0,0.1-0.1,0.4-0.1c0.3,0,0.7,0.2,1,0.6
						c0.3,0.4,0.6,1,0.4,1.7c-0.2,0.7-0.9,1.2-1.7,1.3c-0.8,0.1-1.6-0.4-1.8-1.1c-0.2-0.7,0-1.3,0.3-1.7c0.3-0.4,0.7-0.6,0.9-0.7
						C270.8,366.2,270.9,366.3,270.9,366.3z"/>
				</g>
			</g>
			<g>
				<g>
					<path fill="#E0E0E0" d="M271.1,431.3c0,0.1-0.6,0.1-1,0.8c-0.2,0.3-0.3,0.9-0.1,1.3c0.2,0.5,0.7,0.8,1.3,0.7
						c0.6,0,1.1-0.4,1.2-0.9c0.1-0.5,0-1-0.3-1.3C271.7,431.3,271,431.4,271.1,431.3c0,0,0.1-0.1,0.4-0.1c0.3,0,0.7,0.2,1,0.6
						c0.3,0.4,0.6,1,0.4,1.7c-0.2,0.7-0.9,1.2-1.7,1.3c-0.8,0.1-1.6-0.4-1.8-1.1c-0.2-0.7,0-1.3,0.3-1.7c0.3-0.4,0.7-0.6,0.9-0.7
						C270.9,431.2,271.1,431.3,271.1,431.3z"/>
				</g>
			</g>
			<g>
				<g>
					<path fill="#E0E0E0" d="M314.7,366.3c0,0.1-0.6,0.1-1,0.8c-0.2,0.3-0.3,0.9-0.1,1.3c0.2,0.5,0.7,0.8,1.3,0.7
						c0.6,0,1.1-0.4,1.2-0.9c0.1-0.5,0-1-0.3-1.3C315.3,366.4,314.7,366.4,314.7,366.3c0,0,0.1-0.1,0.4-0.1c0.3,0,0.7,0.2,1,0.6
						c0.3,0.4,0.6,1,0.4,1.7c-0.2,0.7-0.9,1.2-1.7,1.3c-0.8,0.1-1.6-0.4-1.8-1.1c-0.2-0.7,0-1.3,0.3-1.7c0.3-0.4,0.7-0.6,0.9-0.7
						C314.5,366.2,314.7,366.3,314.7,366.3z"/>
				</g>
			</g>
			<g>
				<g>
					<path fill="#E0E0E0" d="M314.8,431.3c0,0.1-0.6,0.1-1,0.8c-0.2,0.3-0.3,0.9-0.1,1.3c0.2,0.5,0.7,0.8,1.3,0.7
						c0.6,0,1.1-0.4,1.2-0.9c0.1-0.5,0-1-0.3-1.3C315.5,431.3,314.8,431.4,314.8,431.3c0,0,0.1-0.1,0.4-0.1c0.3,0,0.7,0.2,1,0.6
						c0.3,0.4,0.6,1,0.4,1.7c-0.2,0.7-0.9,1.2-1.7,1.3c-0.8,0.1-1.6-0.4-1.8-1.1c-0.2-0.7,0-1.3,0.3-1.7c0.3-0.4,0.7-0.6,0.9-0.7
						C314.7,431.2,314.8,431.3,314.8,431.3z"/>
				</g>
			</g>
			<g>
				<g>
					<path fill="#E0E0E0" d="M133.9,431.3c0,0.1-0.6,0.1-1,0.8c-0.2,0.3-0.3,0.9-0.1,1.3c0.2,0.5,0.7,0.8,1.3,0.7
						c0.6,0,1.1-0.4,1.2-0.9c0.1-0.5,0-1-0.3-1.3C134.5,431.3,133.8,431.4,133.9,431.3c0,0,0.1-0.1,0.4-0.1c0.3,0,0.7,0.2,1,0.6
						c0.3,0.4,0.6,1,0.4,1.7c-0.2,0.7-0.9,1.2-1.7,1.3c-0.8,0.1-1.6-0.4-1.8-1.1c-0.2-0.7,0-1.3,0.3-1.7c0.3-0.4,0.7-0.6,0.9-0.7
						C133.7,431.2,133.9,431.3,133.9,431.3z"/>
				</g>
			</g>
			<g>
				<g>
					<path fill="#E0E0E0" d="M301.4,438.4c0,0,0-0.1,0-0.4c0-0.3,0-0.6,0-1.1c0-1,0-2.4,0-4.3c0-3.7,0-9.1-0.1-15.9
						c0-13.6-0.1-32.7-0.1-55l0.2,0.2c-11.5,0-24.1,0-37.1,0h0l0.3-0.3c0,29.7-0.1,56.7-0.1,76.7l-0.2-0.2c11.4,0,20.7,0.1,27.1,0.1
						c3.2,0,5.7,0,7.4,0c0.8,0,1.5,0,1.9,0C301.1,438.4,301.4,438.4,301.4,438.4s-0.2,0-0.6,0c-0.4,0-1.1,0-1.9,0
						c-1.7,0-4.2,0-7.4,0c-6.5,0-15.8,0.1-27.2,0.1l-0.2,0l0-0.2c0-20,0-47-0.1-76.7l0-0.3h0.3h0c13.1,0,25.6,0,37.1,0l0.2,0l0,0.2
						c0,22.4-0.1,41.6-0.1,55.2c0,6.8-0.1,12.1-0.1,15.9c0,1.8,0,3.2,0,4.2c0,0.5,0,0.8,0,1.1C301.4,438.3,301.4,438.4,301.4,438.4z
						"/>
				</g>
			</g>
			<g>
				<g>
					<ellipse fill="#E0E0E0" cx="282.9" cy="398.7" rx="17.6" ry="0.3"/>
				</g>
			</g>
			<g>
				<g>
					<path fill="#E0E0E0" d="M415.2,438.4c0,0,0-0.5,0-1.4c0-0.9,0-2.3,0-4.1c0-3.6,0-8.8-0.1-15.5c0-13.3-0.1-32.5-0.1-55.8
						l0.2,0.2c-30.1,0-67.4,0-107.8,0h0l0.3-0.3c0,27.5,0,53.5,0,76.7l-0.2-0.2c31.8,0,58.7,0.1,77.7,0.1c9.5,0,17,0,22.1,0.1
						c2.6,0,4.5,0,5.9,0c0.7,0,1.2,0,1.5,0C415.1,438.4,415.2,438.4,415.2,438.4s-0.2,0-0.5,0c-0.3,0-0.8,0-1.5,0
						c-1.3,0-3.3,0-5.8,0c-5.1,0-12.6,0-22.1,0.1c-19,0-46,0.1-77.9,0.1l-0.2,0l0-0.2c0-23.2,0-49.2,0-76.7l0-0.3h0.3h0
						c40.4,0,77.7,0,107.8,0l0.2,0l0,0.2c0,23.3-0.1,42.5-0.1,55.9c0,6.7,0,11.9-0.1,15.4c0,1.8,0,3.1,0,4
						C415.3,437.9,415.2,438.4,415.2,438.4z"/>
				</g>
			</g>
		</g>
		<g>
			<g>
				<path fill="#E0E0E0" d="M51.6,92.6v117.8h87.7V92.6C139.2,92.6,51.6,93.6,51.6,92.6z"/>
			</g>
			<g>
				<polygon fill="#EBEBEB" points="51.6,92.9 51.6,111.2 139.3,111.7 139.3,92.6 				"/>
			</g>
			<g>
				<path fill="#FFFFFF" d="M83.3,101.1v3.6h28.1v-3.1C111.4,101.5,84,101.1,83.3,101.1z"/>
			</g>
			<g>
				<rect x="56.5" y="119.6" fill="#FAFAFA" width="27.5" height="29.4"/>
			</g>
			<g>
				<g>
					<path fill="#FAFAFA" d="M80.1,179.9c0,0,0.4,0,1.2,0c0.8,0,2,0,3.5,0c3.1,0,7.4,0,12.8,0l-0.1,0.1c0-8.8,0-20.3,0-33
						c0-2.5,0-5,0-7.4v-0.1l0.1,0c9.6,0,18.3,0,25.2,0l-0.1,0.1c0.1-5.5,0.2-9.9,0.2-13c0-1.5,0.1-2.7,0.1-3.6c0-0.8,0-1.2,0-1.2
						s0,0.4,0,1.2c0,0.9,0,2,0,3.6c0,3.1-0.1,7.6-0.1,13l0,0.1h-0.1c-6.9,0-15.6,0-25.2,0l0.1-0.1c0,2.4,0,4.9,0,7.4
						c0,12.7,0,24.3,0,33l0,0.1l-0.1,0c-5.3,0-9.7,0-12.8,0c-1.5,0-2.6,0-3.5,0C80.5,179.9,80.1,179.9,80.1,179.9z"/>
				</g>
			</g>
			<g>
				<g>
					<path fill="#EBEBEB" d="M131.7,188.6c0,0-0.7,0-2.1,0c-1.4,0-3.4,0-5.9,0c-5.1,0-12.3,0-21,0l-0.1,0l0-0.1c0-8.5,0-18.4,0-29.1
						c0-4.7,0-9.2,0-13.6l0-0.1l0.1,0c6.2,0,12.1,0,17.3,0L120,146c0-8.1,0-14.9,0-19.7c0-2.3,0-4.2,0-5.5c0-1.3,0-1.9,0-1.9
						s0,0.7,0,1.9c0,1.3,0,3.2,0,5.5c0,4.8,0,11.5,0,19.7l0,0.1h-0.1c-5.2,0-11.1,0-17.3,0l0.1-0.1c0,4.3,0,8.9,0,13.6
						c0,10.6,0,20.6,0,29.1l-0.1-0.1c8.7,0,15.9,0,21,0c2.5,0,4.5,0,5.9,0C131,188.6,131.7,188.6,131.7,188.6z"/>
				</g>
			</g>
			<g>
				<polygon fill="#FAFAFA" points="56.6,155.5 56.6,158.3 78.8,158.3 78.8,155 				"/>
			</g>
			<g>
				<polygon fill="#FAFAFA" points="56.5,160.3 56.5,163.1 78.7,163.1 78.7,159.8 				"/>
			</g>
		</g>
		<g>
			<g>
				<path fill="#EBEBEB" d="M449,320.1c0-1.5,0-27-0.1-70.4l0.1,0.1c-39.7,0-93.7,0-153.2,0h0l0.1-0.1c0,24.7,0,48.5,0,70.4
					l-0.1-0.1C384.9,320.1,446.7,320.1,449,320.1c-2.3,0-64.1,0-153.2,0.1h-0.1v-0.1c0-21.8,0-45.6,0-70.4v-0.1h0.1h0
					c59.4,0,113.5,0,153.2,0h0.1l0,0.1C449.1,293.1,449,318.6,449,320.1z"/>
			</g>
		</g>
	</g>
</g>
<g id="Background_Simple" display="none">
	<path display="inline" fill="#F5F5F5" d="M434.5,162.1c12.3,54.9-10.9,114.5-52.8,152c-41.9,37.5-100.1,54.1-156.3,51.3
		c-40.1-2-94.3-17.2-124.9-43.3c-30.6-26-42.4-61.5-34.8-100.9c2.9-14.9,16.5-32.4,29-40.9c20-13.6,46.9-7.5,70.2-0.9
		s50.1,12.7,70.2-0.8c15.4-10.4,22.1-29.4,32.7-44.7c18-26,49.8-41.9,81.4-40.7c5.3,0.2,10.5,0.9,15.7,2c32.4,6.9,58.3,31.4,68.3,63
		L434.5,162.1z"/>
</g>
<g id="Floor">
	<g>
		<g>
			<path fill="#263238" d="M449.9,447.1c0,0.1-89.5,0.3-199.9,0.3c-110.4,0-199.9-0.1-199.9-0.3c0-0.1,89.5-0.3,199.9-0.3
				C360.4,446.8,449.9,447,449.9,447.1z"/>
		</g>
	</g>
</g>
<g id="Bench">
	<g>
		<rect x="110.8" y="340.3" fill="#263238" width="8.5" height="106.7"/>
		<rect x="377.8" y="340.3" fill="#263238" width="8.5" height="106.8"/>
		<path fill="#455A64" d="M393.7,341.4H107.6c-3.3,0-5.9-2.7-5.9-5.9v-1.6c0-3.3,2.7-5.9,5.9-5.9h286.1c3.3,0,5.9,2.7,5.9,5.9v1.6
			C399.7,338.8,397,341.4,393.7,341.4z"/>
	</g>
</g>
<g id="Shield">
	<g>
		<g>
			<g>
				<g>
					<g>
						<path fill="#FA699E" d="M316.7,101.5l-33.8-12.2l-33.5,12c-4.3,2-8,3.2-8,7.2v19.8c0,13.8,3.6,27.4,11,39.5
							c6.3,10.1,15.9,20.6,30.8,27.2c13.7-4.5,23.9-16.3,30.2-26.5c7.4-12.1,11-25.7,11-39.5v-17.8
							C324.4,105.6,321.3,102.9,316.7,101.5z"/>
					</g>
				</g>
				<g opacity="0.3">
					<path d="M283.1,183.6c-11.8-5.3-19.5-13.7-24.4-21.7c-5.9-9.5-8.7-20.3-8.7-31.3v-13.9c0-3.2,1.9-6.1,5.7-7.9l27.1-10.1l0-9.4
						l-33.5,12c-3.5,1.5-8,3.2-8,7.2v19.8c0,13.8,3.6,27.4,11,39.5c6.3,10.1,15.9,20.6,30.8,27.2V183.6z"/>
				</g>
				<g opacity="0.4">
					<path d="M283.1,195.1c2.4-0.8,4.6-1.7,6.6-2.9c5.6-3.1,10.4-7.3,14.1-11.1c4.1-4.3,7.1-8.9,9.8-13.2
						c7.4-12.1,11-25.7,10.7-39.9l0-16.4c0-8.2-4.2-8.8-7.7-10.3l-33.8-12.2l0,9.4l27.4,10.3c3.8,1.8,5.7,4.7,5.7,7.9v13.9
						c0,10.9-2.9,21.7-8.7,31.3c-4.9,8-12.3,16.3-24.1,21.6V195.1z"/>
				</g>
			</g>
			<path opacity="0.5" fill="#FFFFFF" d="M291.8,129.8l0-2.7c0-4.8-3.9-8.8-8.8-8.8c-4.8,0-8.8,3.9-8.8,8.8l0,2.7
				c-2.4,0.4-4.2,2.4-4.2,4.9v15.8c0,2.7,2.2,4.9,4.9,4.9h16.4c2.7,0,4.9-2.2,4.9-4.9v-15.8C296.3,132.1,294.3,130,291.8,129.8z
				 M285.4,146.5h-4.3l0.7-3.1c-0.7-0.5-1.2-1.3-1.2-2.2c0-1.4,1.2-2.6,2.6-2.6c1.4,0,2.6,1.2,2.6,2.6c0,0.9-0.5,1.7-1.2,2.2
				C284.9,144.6,285.4,146.5,285.4,146.5z M289.9,129.7h-13.8l0-2.7c0-3.8,3.1-6.9,6.9-6.9c3.8,0,6.9,3.1,6.9,6.9L289.9,129.7z"/>
			<g>
				<path fill="#FFFFFF" d="M255.5,129.6c-0.1,0-0.3-1-0.5-2.7c-0.2-1.7-0.4-4.1-0.3-6.7c0-1.3,0.1-2.6,0.2-3.7
					c0.1-1.1,0.3-2.2,0.8-3c0.4-0.8,1-1.3,1.5-1.5c0.5-0.2,0.7-0.2,0.7-0.2c0.1,0.1-1.1,0.3-1.9,1.8c-0.4,0.7-0.5,1.7-0.6,2.9
					c-0.1,1.1-0.2,2.4-0.2,3.7c-0.1,2.6,0,5,0.1,6.7C255.5,128.5,255.6,129.5,255.5,129.6z"/>
			</g>
			<g>
				
					<ellipse transform="matrix(1.964057e-002 0.9998 -0.9998 1.964057e-002 387.2628 -122.2028)" fill="#FFFFFF" cx="255.9" cy="136.4" rx="1.8" ry="0.3"/>
			</g>
		</g>
		<g>
			<g>
				<g>
					<g>
						<path fill="#FA699E" d="M328.1,91.5c0,0,1,0.2,2.7,0.9c0.9,0.3,1.9,0.8,3,1.6c1.1,0.8,2.3,1.9,3.2,3.5
							c0.9,1.6,1.4,3.5,1.5,5.7c0.1,2.2,0,4.5,0,7.1c0,5.1,0,10.9,0,17.4c-0.1,6.5-0.9,13.6-2.7,21.2c-1.9,7.5-4.9,15.3-9.3,23
							c-4.4,7.6-10.1,15.1-17.1,21.9c-7,6.7-15.6,12.6-25.7,15.8l-0.1,0l-0.1,0c-3.5-1.5-6.9-3.2-10.3-5.1c-3.4-2-6.7-4.1-9.9-6.6
							c-6.4-4.8-12.2-10.7-17.2-17.4c-5.5-7.2-9.8-15.2-12.8-23.4c-3-8.2-4.8-16.7-5.4-25c-0.3-4.2-0.2-8.3-0.2-12.3c0-4,0-8,0-11.9
							c0-1.9,0-3.9,0-5.8c0-1,0-1.9,0.1-2.9c0.1-1,0.6-1.9,1.2-2.7c1.2-1.5,2.9-2.5,4.6-3.3c1.7-0.8,3.4-1.5,5-2.2l0,0l0,0
							c16.9-5.7,32-10.8,44.6-15l0.1,0l0.1,0c14.1,4.8,25.4,8.7,33.1,11.3c3.8,1.3,6.8,2.3,8.8,3c1,0.3,1.8,0.6,2.3,0.8
							C327.9,91.4,328.1,91.5,328.1,91.5s-0.3-0.1-0.8-0.2c-0.5-0.2-1.3-0.4-2.3-0.8c-2-0.7-5-1.7-8.9-3c-7.7-2.6-19-6.4-33.1-11.2
							l0.1,0c-12.6,4.3-27.6,9.4-44.6,15.1l0,0c-1.6,0.7-3.3,1.4-5,2.2c-1.6,0.8-3.3,1.7-4.4,3.2c-0.6,0.7-0.9,1.6-1.1,2.5
							c-0.1,0.9-0.1,1.9-0.1,2.8c0,1.9,0,3.8,0,5.8c0,3.9,0,7.9,0,11.9c0,4-0.1,8.1,0.3,12.2c0.6,8.3,2.3,16.7,5.4,24.8
							c3,8.2,7.3,16,12.7,23.2c5,6.6,10.8,12.5,17.1,17.3c3.2,2.4,6.5,4.6,9.8,6.5c3.4,1.9,6.8,3.6,10.3,5.1l-0.2,0
							c10-3.1,18.6-9,25.6-15.6c7-6.7,12.6-14.2,17-21.8c4.4-7.6,7.4-15.4,9.3-22.8c1.9-7.5,2.7-14.6,2.8-21.1
							c0-6.5,0-12.3,0.1-17.4c0-2.5,0-4.9,0-7.1c0-2.2-0.5-4.1-1.4-5.7c-0.8-1.6-2-2.7-3.1-3.5c-1.1-0.8-2.1-1.3-3-1.7
							c-0.9-0.4-1.5-0.6-2-0.7C328.4,91.5,328.1,91.5,328.1,91.5z"/>
					</g>
				</g>
			</g>
		</g>
	</g>
</g>
<g id="Character">
	<g>
		<g>
			<g>
				<g>
					<path fill="#455A64" d="M222.8,249.4l2.5,47l62.6,1.4l-4.6-36.5L288,224c-3.1-17.5-27.6-18.7-27.6-18.7l-19.2-0.3
						c0,0-9-1.2-18.9,4.2c0,0-19.5,10.6-19.3,37.6"/>
				</g>
				<g>
					<g>
						<path fill="#263238" d="M260.5,204.8c-0.1,0-0.3,1.6-1.7,3.8c-1.3,2.1-4.5,4.5-8.4,4.4c-3.9,0-7.2-2.2-8.5-4.4
							c-0.7-1.1-1-2.1-1.2-2.8c-0.2-0.7-0.3-1.1-0.3-1.1c0,0,0,0.4,0.1,1.1c0.1,0.7,0.4,1.8,1.1,2.9c0.7,1.2,1.8,2.4,3.3,3.3
							c1.5,0.9,3.5,1.5,5.5,1.5c2,0,4-0.6,5.5-1.5c1.5-0.9,2.6-2.1,3.3-3.3c0.7-1.1,1-2.2,1.2-2.9
							C260.5,205.2,260.6,204.8,260.5,204.8z"/>
					</g>
				</g>
			</g>
			<g>
				<g>
					<g>
						<path fill="#FFBE9D" d="M275.2,220.5c-6,4.8-9.7,12-10,19.7c-0.5,11.9-1.2,28.5-1.7,29.4c-1.4,2.6-37.6,0.4-41.4,0.1
							c-0.6-0.2-2-0.6-4.6-1.4c0,0-8.5-7.3-10-5.1c-1.5,2.2,4.4,3.6,5.6,7.9c1.2,4.3-10.9,0.9-11.6,0.4l-3.1-0.9
							c0,0,1.8,5.9,3.4,7.8c5,6,16.5,9,16.5,9s46.9,15.2,65.8,2.7c6.2-4.1,7.2-44.4,4.9-60c-0.9-6.2-6.3-10.7-12.5-10.6L275.2,220.5
							z"/>
					</g>
					<g>
						<g>
							<path fill="#EB996E" d="M205.7,277.2c0-0.1-1.3-0.7-2.9-1.5c-1.6-0.8-2.8-1.5-2.9-1.4c-0.1,0.1,1.1,0.9,2.7,1.7
								C204.3,276.9,205.7,277.3,205.7,277.2z"/>
						</g>
					</g>
				</g>
				<g>
					<g>
						<path fill="#455A64" d="M283,214.9c5.8,5.5,11.4,16.6,9.3,38.8l-30.8-1.3l0.8-30.3c0.1-3.1,1.5-5.9,4-7.8l0,0
							C271.2,210.3,278.4,210.5,283,214.9z"/>
					</g>
				</g>
			</g>
		</g>
		<g>
			<g>
				<g>
					<g>
						<g>
							<g>
								<path fill="#FA699E" d="M221.7,441l-0.8-11.6l21.8-1.7l1.4,17l-1.3,0.2c-6,0.8-30.5,3.6-34.6,2.7
									C203.5,446.6,221.7,441,221.7,441z"/>
							</g>
						</g>
					</g>
					<g opacity="0.3">
						<g>
							<g>
								<path fill="#FFFFFF" d="M236.2,445.1c0.2-1.8,1-3.6,2.4-4.9c1.4-1.2,3.1-2,5-2l0.5,6.1L236.2,445.1z"/>
							</g>
						</g>
					</g>
				</g>
				<g opacity="0.3">
					<g>
						<g>
							<path fill="#FFFFFF" d="M212.9,444.1c0,0-6.3,2.4-5.4,3.4c0.9,1,25.8-0.9,36.6-2.8l-0.1-0.5l-29,2.5
								C215,446.7,214.1,444,212.9,444.1z"/>
						</g>
					</g>
				</g>
				<g>
					<g>
						<g>
							<g>
								<path fill="#263238" d="M244.3,444.2c0,0-0.1,0-0.4,0.1c-0.3,0-0.7,0.1-1.1,0.1c-1.1,0.1-2.4,0.3-3.9,0.5
									c-3.3,0.4-7.9,0.8-13,1.3c-5.1,0.4-9.7,0.7-13.1,0.8c-1.6,0.1-2.9,0.1-4,0.1c-0.4,0-0.8,0-1.1,0c-0.2,0-0.4,0-0.4,0
									c0,0,0.1,0,0.4,0c0.3,0,0.7,0,1.1-0.1c1.1-0.1,2.4-0.1,4-0.2c3.3-0.2,8-0.5,13.1-0.9c5.1-0.4,9.7-0.8,13-1.2
									c1.6-0.2,2.9-0.3,4-0.4c0.4,0,0.8-0.1,1.1-0.1C244.2,444.2,244.3,444.1,244.3,444.2z"/>
							</g>
						</g>
					</g>
				</g>
				<g>
					<g>
						<g>
							<g>
								<path fill="#263238" d="M215,447c-0.1,0-0.2-0.9-0.9-1.8c-0.7-0.9-1.5-1.3-1.5-1.4c0-0.1,1,0.3,1.7,1.3
									C215.1,446,215.1,447.1,215,447z"/>
							</g>
						</g>
					</g>
				</g>
				<g>
					<g>
						<g>
							<g>
								<ellipse transform="matrix(0.6 0.8 -0.8 0.6 442.1436 0.5046)" fill="#263238" cx="220.6" cy="442.4" rx="1.1" ry="0.1"/>
							</g>
						</g>
					</g>
				</g>
				<g>
					<g>
						<g>
							<g>
								
									<ellipse transform="matrix(0.7937 0.6083 -0.6083 0.7937 314.522 -44.0334)" fill="#263238" cx="222.2" cy="441.7" rx="0.9" ry="0.1"/>
							</g>
						</g>
					</g>
				</g>
				<g>
					<g>
						<g>
							<g>
								
									<ellipse transform="matrix(0.996 -8.917648e-002 8.917648e-002 0.996 -38.3661 21.6152)" fill="#263238" cx="222.7" cy="440.2" rx="1.1" ry="0.1"/>
							</g>
						</g>
					</g>
				</g>
				<g>
					<g>
						<g>
							<g>
								<path fill="#263238" d="M224.1,438.6c0,0.1-0.5,0.4-1.2,0.5c-0.7,0.1-1.3,0-1.3-0.1c0-0.1,0.6-0.1,1.3-0.2
									C223.5,438.7,224.1,438.5,224.1,438.6z"/>
							</g>
						</g>
					</g>
				</g>
				<g>
					<g>
						<g>
							<g>
								<path fill="#263238" d="M220.3,441.4c0,0-0.5,0.1-1.4,0.1c-0.4,0-1-0.1-1.5-0.2c-0.3-0.1-0.6-0.1-0.9-0.3
									c-0.1-0.1-0.3-0.2-0.4-0.4c-0.1-0.2,0-0.4,0.2-0.6c1.3-0.8,2.7-0.1,3.2,0.5c0.3,0.3,0.5,0.7,0.5,0.9
									c0.1,0.2,0.1,0.4,0.1,0.4c0,0-0.1-0.5-0.7-1.1c-0.3-0.3-0.7-0.6-1.3-0.7c-0.5-0.1-1.2-0.1-1.7,0.2c-0.2,0.2-0.1,0.4,0.2,0.6
									c0.2,0.1,0.5,0.2,0.8,0.3c0.5,0.1,1,0.2,1.5,0.3C219.8,441.4,220.3,441.4,220.3,441.4z"/>
							</g>
						</g>
					</g>
				</g>
				<g>
					<g>
						<g>
							<g>
								<path fill="#263238" d="M220,441.5c0,0-0.3-0.3-0.2-1c0-0.3,0.1-0.7,0.3-1.1c0.2-0.3,0.5-0.8,1.1-0.8c0.3,0,0.5,0.4,0.5,0.6
									c0,0.2-0.1,0.5-0.2,0.6c-0.2,0.4-0.4,0.7-0.6,0.9c-0.4,0.5-0.7,0.7-0.8,0.6c0,0,0.3-0.3,0.6-0.7c0.2-0.2,0.4-0.5,0.5-0.9
									c0.2-0.3,0.3-0.9-0.1-0.9c-0.4,0-0.7,0.4-0.9,0.7c-0.2,0.3-0.3,0.7-0.3,0.9C219.9,441.2,220,441.5,220,441.5z"/>
							</g>
						</g>
					</g>
				</g>
				<g>
					<g>
						<g>
							<g>
								<path fill="#263238" d="M243.4,438.2c0,0-0.6,0-1.6,0.2c-1,0.2-2.3,0.7-3.4,1.7c-1.1,1-1.7,2.3-2,3.3
									c-0.3,1-0.2,1.6-0.3,1.6c0,0,0-0.2,0-0.4c0-0.3,0-0.7,0.1-1.2c0.2-1,0.8-2.3,2-3.4c1.2-1.1,2.5-1.6,3.5-1.7
									c0.5-0.1,0.9-0.1,1.2-0.1C243.3,438.2,243.4,438.2,243.4,438.2z"/>
							</g>
						</g>
					</g>
				</g>
				<g>
					<g>
						<g>
							<g>
								
									<ellipse transform="matrix(-9.057387e-002 -0.9959 0.9959 -9.057387e-002 -169.3598 712.9835)" fill="#263238" cx="240.9" cy="433.8" rx="4.5" ry="0.1"/>
							</g>
						</g>
					</g>
				</g>
				<g>
					<g>
						<g>
							<g>
								<path fill="#263238" d="M233.2,443.2c0,0.1-1.4,0.4-3.2,0.6c-1.8,0.2-3.2,0.1-3.2,0c0-0.1,1.4-0.1,3.2-0.3
									C231.8,443.4,233.2,443.1,233.2,443.2z"/>
							</g>
						</g>
					</g>
				</g>
				<g>
					<g>
						<g>
							<g>
								<path fill="#263238" d="M237.5,442.9c0.1,0-0.1,0.3-0.2,0.6c-0.1,0.3-0.2,0.6-0.3,0.6c-0.1,0-0.1-0.3,0-0.7
									C237.2,443,237.5,442.8,237.5,442.9z"/>
							</g>
						</g>
					</g>
				</g>
				<g>
					<g>
						<g>
							<g>
								
									<ellipse transform="matrix(0.6447 -0.7644 0.7644 0.6447 -252.4921 339.1438)" fill="#263238" cx="238.6" cy="441.2" rx="0.6" ry="0.1"/>
							</g>
						</g>
					</g>
				</g>
				<g>
					<g>
						<g>
							<g>
								<path fill="#263238" d="M241.2,439.7c0,0.1-0.3,0.1-0.6,0.2c-0.3,0.1-0.5,0.3-0.6,0.3c-0.1,0,0.1-0.4,0.5-0.5
									C240.9,439.5,241.2,439.6,241.2,439.7z"/>
							</g>
						</g>
					</g>
				</g>
				<g>
					<g>
						<g>
							<g>
								
									<ellipse transform="matrix(0.9013 -0.4331 0.4331 0.9013 -166.3228 148.3635)" fill="#263238" cx="242.5" cy="439.2" rx="0.4" ry="0.1"/>
							</g>
						</g>
					</g>
				</g>
			</g>
		</g>
		<g>
			<g>
				<g>
					<g>
						<g>
							<g>
								<path fill="#FA699E" d="M154.8,441.6l0.3-11.7l21.8,0.4l-0.2,17.1l-1.4,0.1c-6,0.2-30.7,0.7-34.7-0.6
									C136.2,445.4,154.8,441.6,154.8,441.6z"/>
							</g>
						</g>
					</g>
					<g opacity="0.3">
						<g>
							<g>
								<path fill="#FFFFFF" d="M168.8,447c0.3-1.8,1.4-3.5,2.9-4.6c1.5-1.1,3.3-1.7,5.1-1.5l-0.1,6.1L168.8,447z"/>
							</g>
						</g>
					</g>
				</g>
				<g opacity="0.3">
					<g>
						<g>
							<path fill="#FFFFFF" d="M145.7,443.7c0,0-6.5,1.8-5.7,2.8c0.8,1.1,25.7,1.5,36.7,0.8l0-0.5l-29.1-0.3
								C147.6,446.6,147,443.8,145.7,443.7z"/>
						</g>
					</g>
				</g>
				<g>
					<g>
						<g>
							<g>
								<path fill="#263238" d="M177,446.9c0,0-0.1,0-0.4,0c-0.3,0-0.7,0-1.1,0c-1.1,0-2.4,0.1-4,0.1c-3.4,0.1-8,0.1-13.1,0
									c-5.1-0.1-9.8-0.3-13.1-0.4c-1.6-0.1-2.9-0.2-4-0.2c-0.4,0-0.8-0.1-1.1-0.1c-0.2,0-0.4,0-0.4,0c0,0,0.1,0,0.4,0
									c0.3,0,0.7,0,1.1,0c1.1,0,2.4,0.1,4,0.2c3.4,0.1,8,0.3,13.1,0.4c5.1,0.1,9.7,0.1,13.1,0.1c1.6,0,2.9,0,4,0
									c0.4,0,0.8,0,1.1,0C176.9,446.9,177,446.9,177,446.9z"/>
							</g>
						</g>
					</g>
				</g>
				<g>
					<g>
						<g>
							<g>
								<path fill="#263238" d="M147.6,446.9c-0.1,0-0.1-0.9-0.7-1.9c-0.6-1-1.4-1.5-1.3-1.5c0-0.1,0.9,0.4,1.6,1.4
									C147.7,445.9,147.6,447,147.6,446.9z"/>
							</g>
						</g>
					</g>
				</g>
				<g>
					<g>
						<g>
							<g>
								
									<ellipse transform="matrix(0.5204 0.8539 -0.8539 0.5204 451.7939 81.312)" fill="#263238" cx="153.5" cy="442.9" rx="1.1" ry="0.1"/>
							</g>
						</g>
					</g>
				</g>
				<g>
					<g>
						<g>
							<g>
								
									<ellipse transform="matrix(0.7316 0.6818 -0.6818 0.7316 343.1759 12.917)" fill="#263238" cx="155.2" cy="442.3" rx="0.9" ry="0.1"/>
							</g>
						</g>
					</g>
				</g>
				<g>
					<g>
						<g>
							<g>
								
									<ellipse transform="matrix(1 6.967709e-003 -6.967709e-003 1 3.0754 -1.0753)" fill="#263238" cx="155.9" cy="440.8" rx="1.1" ry="0.1"/>
							</g>
						</g>
					</g>
				</g>
				<g>
					<g>
						<g>
							<g>
								<path fill="#263238" d="M157.4,439.4c0,0.1-0.5,0.3-1.3,0.3c-0.7,0-1.3-0.1-1.3-0.2c0-0.1,0.6,0,1.3-0.1
									C156.8,439.4,157.4,439.3,157.4,439.4z"/>
							</g>
						</g>
					</g>
				</g>
				<g>
					<g>
						<g>
							<g>
								<path fill="#263238" d="M153.4,441.9c0,0-0.5,0.1-1.4,0c-0.4-0.1-0.9-0.2-1.5-0.4c-0.3-0.1-0.6-0.2-0.8-0.4
									c-0.1-0.1-0.3-0.2-0.3-0.4c-0.1-0.2,0.1-0.4,0.2-0.6c1.4-0.7,2.7,0.1,3.2,0.8c0.3,0.4,0.4,0.7,0.4,0.9c0.1,0.2,0,0.4,0,0.4
									c0,0-0.1-0.6-0.6-1.2c-0.3-0.3-0.7-0.6-1.2-0.8c-0.5-0.2-1.2-0.2-1.7,0.1c-0.2,0.2-0.1,0.4,0.1,0.6c0.2,0.2,0.5,0.2,0.8,0.4
									c0.5,0.2,1,0.3,1.4,0.4C152.8,441.8,153.4,441.8,153.4,441.9z"/>
							</g>
						</g>
					</g>
				</g>
				<g>
					<g>
						<g>
							<g>
								<path fill="#263238" d="M153,441.9c0,0-0.2-0.3-0.1-1c0-0.3,0.2-0.7,0.4-1c0.3-0.3,0.6-0.7,1.2-0.7c0.3,0,0.5,0.4,0.4,0.7
									c0,0.2-0.1,0.5-0.2,0.6c-0.2,0.3-0.5,0.6-0.7,0.8c-0.4,0.4-0.8,0.6-0.8,0.6c0,0,0.3-0.2,0.7-0.7c0.2-0.2,0.4-0.5,0.6-0.8
									c0.2-0.3,0.3-0.8,0-0.9c-0.4,0-0.7,0.3-0.9,0.6c-0.2,0.3-0.4,0.6-0.4,0.9C152.9,441.6,153,441.9,153,441.9z"/>
							</g>
						</g>
					</g>
				</g>
				<g>
					<g>
						<g>
							<g>
								<path fill="#263238" d="M176.7,440.9c0,0-0.6-0.1-1.6,0c-1,0.1-2.3,0.5-3.5,1.4c-1.2,0.9-1.9,2.1-2.3,3.1
									c-0.4,0.9-0.4,1.6-0.4,1.6c0,0,0-0.2,0-0.4c0-0.3,0.1-0.7,0.3-1.2c0.3-1,1-2.3,2.3-3.2c1.3-1,2.7-1.3,3.7-1.4
									c0.5,0,0.9,0,1.2,0.1C176.5,440.8,176.7,440.9,176.7,440.9z"/>
							</g>
						</g>
					</g>
				</g>
				<g>
					<g>
						<g>
							<g>
								
									<ellipse transform="matrix(5.559134e-003 -1 1 5.559134e-003 -262.6728 608.3545)" fill="#263238" cx="174.5" cy="436.2" rx="4.5" ry="0.1"/>
							</g>
						</g>
					</g>
				</g>
				<g>
					<g>
						<g>
							<g>
								<path fill="#263238" d="M166.1,444.9c0,0.1-1.4,0.3-3.2,0.3c-1.8,0-3.2-0.2-3.2-0.3c0-0.1,1.4,0,3.2,0
									C164.6,444.9,166,444.8,166.1,444.9z"/>
							</g>
						</g>
					</g>
				</g>
				<g>
					<g>
						<g>
							<g>
								<path fill="#263238" d="M170.3,444.9c0.1,0.1-0.1,0.3-0.3,0.6c-0.2,0.3-0.2,0.6-0.3,0.6c-0.1,0-0.1-0.3,0.1-0.7
									C170,445.1,170.3,444.9,170.3,444.9z"/>
							</g>
						</g>
					</g>
				</g>
				<g>
					<g>
						<g>
							<g>
								
									<ellipse transform="matrix(0.7151 -0.699 0.699 0.7151 -261.0351 246.2278)" fill="#263238" cx="171.6" cy="443.4" rx="0.6" ry="0.1"/>
							</g>
						</g>
					</g>
				</g>
				<g>
					<g>
						<g>
							<g>
								<path fill="#263238" d="M174.3,442.1c0,0.1-0.3,0.1-0.6,0.2c-0.3,0.1-0.6,0.3-0.6,0.2c-0.1,0,0.1-0.3,0.5-0.5
									C174,441.9,174.3,442,174.3,442.1z"/>
							</g>
						</g>
					</g>
				</g>
				<g>
					<g>
						<g>
							<g>
								
									<ellipse transform="matrix(0.9388 -0.3444 0.3444 0.9388 -141.4077 87.511)" fill="#263238" cx="175.6" cy="441.8" rx="0.4" ry="0.1"/>
							</g>
						</g>
					</g>
				</g>
			</g>
		</g>
		<g>
			<g>
				<g>
					<path fill="#263238" d="M174,295.1l74.9-0.9l-15.7,35.2l-47.9,0.2l-4.6,107.9h-29.3l2.8-120.3
						C154.5,305.9,162.9,296.5,174,295.1L174,295.1z"/>
				</g>
				<g>
					<g>
						<ellipse fill="#455A64" cx="166.5" cy="429.1" rx="15.2" ry="0.3"/>
					</g>
				</g>
			</g>
			<g>
				<g>
					<path fill="#263238" d="M245.2,332.2l2.1,103.6l-33.9,1.7c0,0-5.4-101.5-2.7-130.3c1.8-19.7,77.1-11.2,77.1-11.2
						C288.9,335.2,245.2,332.2,245.2,332.2"/>
				</g>
				<g>
					<g>
						<path fill="#455A64" d="M247.3,427.6c0,0-0.5-0.1-1.3,0c-1,0-2.1,0.1-3.5,0.1c-3,0.1-7.1,0.3-11.7,0.5
							c-4.6,0.2-8.7,0.5-11.7,0.7c-1.4,0.1-2.6,0.2-3.5,0.3c-0.8,0.1-1.3,0.1-1.3,0.2s0.5,0.1,1.3,0c1,0,2.1-0.1,3.5-0.1
							c3-0.1,7.1-0.3,11.7-0.5c4.6-0.2,8.7-0.5,11.7-0.7c1.4-0.1,2.6-0.2,3.5-0.3C246.8,427.7,247.3,427.7,247.3,427.6z"/>
					</g>
				</g>
				<g>
					<g>
						
							<ellipse transform="matrix(5.674182e-002 -0.9984 0.9984 5.674182e-002 -96.5949 554.8152)" fill="#455A64" cx="245.3" cy="328.5" rx="5" ry="0.3"/>
					</g>
				</g>
			</g>
			<g>
				<g>
					<path fill="#455A64" d="M246.9,294.3c0,0-0.2,0-0.6,0c-0.5,0-1.1,0-1.8,0c-1.6,0-3.9,0.1-6.7,0.3c-2.8,0.2-6.2,0.4-10,1
						c-3.7,0.6-7.8,1.7-11.5,4.1c-0.9,0.6-1.7,1.3-2.5,2.2c-0.7,0.8-1.3,1.8-1.6,2.8c-0.7,2-1,4-1.2,5.8c-0.4,3.8-0.4,7.2-0.4,10
						c0,2.8,0,5.1,0,6.7c0,0.7,0,1.3,0,1.8c0,0.4,0,0.6,0,0.6c0,0,0.1-0.2,0.1-0.6c0-0.4,0.1-1,0.1-1.8c0.1-1.6,0.1-3.9,0.2-6.7
						c0.1-2.8,0.1-6.2,0.5-9.9c0.2-1.9,0.5-3.8,1.2-5.7c0.6-1.9,2.1-3.4,3.9-4.6c3.6-2.4,7.6-3.5,11.3-4.1c3.7-0.6,7.1-0.9,9.9-1.1
						c2.8-0.2,5-0.4,6.7-0.5c0.7-0.1,1.3-0.1,1.8-0.2C246.7,294.4,246.9,294.4,246.9,294.3z"/>
				</g>
			</g>
		</g>
		<g>
			<g>
				<g>
					<g>
						<g>
							<g>
								<path fill="#FFBE9D" d="M250.1,213.6L250.1,213.6c-5.7,0-10.2-4.6-10.2-10.3c0-3.5,0.1-6.6,0.1-6.6s-8.2-0.8-8.8-8.8
									c-0.6-8.1-0.3-26.8-0.3-26.8l0,0c9.1-4.6,20-3.9,28.5,1.8l1.3,0.8l-0.4,39.8C260.2,209.1,255.7,213.6,250.1,213.6z"/>
							</g>
						</g>
						<g>
							<g>
								<g>
									<path fill="#263238" d="M239.9,182.8c0,0.1-0.7,0.1-1.8,0.2c-0.1,0-0.3,0-0.5,0c-0.2,0-0.4-0.2-0.5-0.4
										c-0.2-0.5,0-0.9,0.1-1.2c0.2-0.8,0.5-1.5,0.7-2.3c1-3.3,2-5.9,2.1-5.9c0.2,0.1-0.5,2.8-1.5,6.1c-0.3,0.8-0.5,1.6-0.7,2.3
										c-0.1,0.4-0.2,0.7-0.2,0.9c0,0.2,0.3,0.2,0.6,0.2C239.2,182.7,239.9,182.8,239.9,182.8z"/>
								</g>
							</g>
						</g>
						<g>
							<g>
								<path fill="#EB996E" d="M240,196.6c0,0,5.1,0.1,10.4-3.6c0,0-2.1,6-10.3,5.7L240,196.6z"/>
							</g>
						</g>
					</g>
				</g>
				<g>
					<g>
						<g>
							<path fill="#FFBE9D" d="M258.6,172.7c0.1-0.1,5.1-0.7,4.7,5.2c-0.5,5.9-6.2,3.5-6.2,3.3C257,181,258.6,172.7,258.6,172.7z"/>
						</g>
					</g>
					<g>
						<g>
							<g>
								<path fill="#EB996E" d="M259,179.2c0,0,0.1,0.1,0.3,0.2c0.2,0.1,0.4,0.2,0.8,0.1c0.6-0.2,1.2-1.1,1.4-2.2
									c0.1-0.5,0-1.1-0.2-1.5c-0.1-0.4-0.4-0.8-0.7-0.8c-0.3-0.1-0.5,0.1-0.6,0.2c-0.1,0.2-0.1,0.3-0.1,0.3c0,0-0.1-0.1-0.1-0.3
									c0-0.1,0.1-0.2,0.3-0.3c0.2-0.1,0.4-0.1,0.6-0.1c0.5,0.1,0.8,0.5,1,1c0.2,0.5,0.3,1.1,0.2,1.7c-0.1,1.2-0.8,2.2-1.7,2.4
									c-0.4,0.1-0.8-0.1-0.9-0.2C259,179.4,259,179.2,259,179.2z"/>
							</g>
						</g>
					</g>
				</g>
				<g>
					<g>
						<path fill="#263238" d="M231.6,161.6c-2-0.5-3.4-2.6-3.3-4.6c0.1-2.1,1.5-3.9,3.4-4.8c1.9-0.9,4.1-0.7,6,0.1
							c0.6-3,3.5-5.3,6.5-5.3c3,0.1,5.8,2.6,6.2,5.6c0.2-1.6,2-2.4,3.5-2.5c1.6-0.1,3.3,0.4,4.3,1.6c1,1.2,1.1,3.2,0,4.3
							c1.8-0.2,3.6,0.2,5,1.2c1.4,1,2.4,2.8,2.2,4.5c-0.1,1.8-1.4,3.4-3.2,3.8c-0.6,0.1-0.7-0.3-1.1,0.2c-0.2,0.3-0.2,1.4-0.2,1.7
							c0.1,1.9,0.1,3.6-0.3,5.5c-1-0.5-2.3,0.2-2.8,1.3c-0.5,1-0.4,2.2-0.3,3.4c-0.5,0.7-1.8,0.5-2.3-0.2c-0.5-0.7-0.6-1.7-0.6-2.6
							c0-3.1-0.1-6.2-0.1-9.4c-0.9,0.5-2.1,0.5-3,0c-0.9-0.5-1.5-1.5-1.6-2.6c-1.3,1.3-3.2,1.9-5,1.7c-1.8-0.2-3.5-1.3-4.5-2.8
							c-1,0.8-1.9,1.5-3.1,2c-1.1,0.5-2.4,0.7-3.6,0.3c-1.2-0.4-2.1-1.5-2.1-2.7c0.1-0.1,0.3-0.2,0.4-0.4"/>
					</g>
				</g>
			</g>
		</g>
	</g>
	<g>
		<polygon fill="#FA699E" points="260.5,295.5 180.6,295.5 167.4,244.5 234.1,244.5 244.7,292.2 260.5,292.6 		"/>
	</g>
	<g>
		<g>
			<g>
				<path fill="#263238" d="M236.5,173.4c0.1,0.1-0.7,0.7-1.8,0.7c-1.1,0-1.9-0.5-1.8-0.6c0.1-0.1,0.8,0.1,1.8,0.1
					C235.7,173.5,236.5,173.2,236.5,173.4z"/>
			</g>
		</g>
		<g>
			<g>
				<path fill="#263238" d="M233.7,173.9c0,0.6,0.5,1.1,1,1.1c0.6,0,1-0.5,1-1.1"/>
			</g>
		</g>
	</g>
	<g>
		<g>
			<g>
				<path fill="#263238" d="M247.8,173.4c0.1,0.1-0.7,0.7-1.8,0.7c-1.1,0-1.9-0.5-1.8-0.6c0.1-0.1,0.8,0.1,1.8,0.1
					C247,173.6,247.7,173.3,247.8,173.4z"/>
			</g>
		</g>
		<g>
			<g>
				<path fill="#263238" d="M244.9,174c0,0.6,0.5,1.1,1,1.1c0.6,0,1-0.5,1-1.1"/>
			</g>
		</g>
	</g>
	<g>
		<g>
			<path fill="#263238" d="M248.5,170.8c-0.1,0.4-1.2,0.6-2.6,0.6c-1.4,0-2.5-0.1-2.6-0.6c-0.1-0.4,1.1-1,2.6-1
				C247.4,169.8,248.6,170.4,248.5,170.8z"/>
		</g>
	</g>
	<g>
		<g>
			<path fill="#263238" d="M236.9,171.5c-0.1,0.4-1.2,0.6-2.6,0.6c-1.4,0-2.5-0.1-2.6-0.6c-0.1-0.4,1.1-1,2.6-1
				C235.8,170.5,237,171,236.9,171.5z"/>
		</g>
	</g>
	<g>
		<path fill="#455A64" d="M266.1,175.7c0,3-2.5,5.5-5.5,5.5s-4.1-2.5-4.1-5.5c0-3,1.1-5.5,4.1-5.5S266.1,172.7,266.1,175.7z"/>
	</g>
	<g>
		<path fill="#455A64" d="M260.1,171.5c0,0,4.3-20.4-9.7-19.6l-0.7-1.3c0,0,8.5-2,11.6,4.6c2.4,5.1,0.8,16.1,0.8,16.1L260.1,171.5z"
			/>
	</g>
	<g>
		<g>
			<path fill="#263238" d="M261.3,181.2c0,0-0.8,0.1-1.8-0.7c-1-0.7-2.1-2.2-2.4-4.1c-0.2-1.9,0.3-3.6,1-4.6
				c0.7-1.1,1.6-1.2,1.6-1.1c0,0.1-0.7,0.3-1.3,1.3c-0.5,1-1,2.6-0.8,4.4c0.2,1.7,1.2,3.1,2.1,3.9
				C260.6,181,261.3,181.1,261.3,181.2z"/>
		</g>
	</g>
	<g>
		<g>
			<path fill="#263238" d="M240.2,185c0.1,0.1-0.1,0.4-0.4,0.5c-0.3,0.1-0.6,0-0.6-0.2c0-0.1,0.2-0.2,0.4-0.3
				C239.9,184.8,240.1,184.8,240.2,185z"/>
		</g>
	</g>
	<g>
		<g>
			<path fill="#263238" d="M292.3,253.6c0,0-0.2,0-0.5,0c-0.4,0-0.9,0-1.5,0c-1.4-0.1-3.3-0.1-5.6-0.2c-4.8-0.2-11.4-0.5-18.6-0.9
				c-1.3-0.1-2.5-0.1-3.7-0.2l-0.2,0l0-0.2c0-6.4,0.1-12,0.1-16.1c0-2,0.1-3.6,0.1-4.8c0-0.5,0-0.9,0-1.3c0-0.3,0-0.4,0-0.4
				c0,0,0,0.2,0,0.4c0,0.3,0,0.8,0,1.3c0,1.2,0,2.8,0.1,4.8c0,4.1,0.1,9.8,0.1,16.1l-0.2-0.3c1.2,0.1,2.5,0.1,3.7,0.2
				c7.3,0.4,13.9,0.7,18.6,1c2.3,0.2,4.2,0.3,5.6,0.4c0.6,0.1,1.1,0.1,1.5,0.1C292.1,253.6,292.3,253.6,292.3,253.6z"/>
		</g>
	</g>
	<g>
		<g>
			<path fill="#263238" d="M278,210c0,0.1-1.4-0.3-3.6-0.1c-2.2,0.2-5.2,1.2-7.6,3.6c-2.4,2.4-3.5,5.4-3.9,7.6
				c-0.4,2.2-0.4,3.6-0.5,3.6c0,0-0.1-0.3-0.1-1c0-0.6,0-1.6,0.2-2.7c0.3-2.2,1.4-5.3,3.9-7.9c2.5-2.5,5.7-3.5,7.9-3.6
				c1.1-0.1,2.1,0,2.7,0.2C277.7,209.9,278,210,278,210z"/>
		</g>
	</g>
	<g>
		<g>
			<path fill="#263238" d="M222.8,225.5c0.1,0,0.1,1.1,0.2,2.9c0,1.8,0.1,4.3,0,7.1c-0.1,2.6-0.1,5-0.2,6.9c0,1.1,0,1.9,0,2.7
				c0-0.9,0-1.8,0-3.1c0-1.9-0.1-4.3-0.2-7c-0.1-2.7,0-5,0-6.8C222.6,226.6,222.7,225.5,222.8,225.5z"/>
		</g>
	</g>
	<g>
		<circle fill="#F5F5F5" cx="202.8" cy="270" r="4.5"/>
	</g>
</g>
</svg>
