<?xml version="1.0" encoding="utf-8"?>
<!-- Generator: Adobe Illustrator 18.1.1, SVG Export Plug-In . SVG Version: 6.00 Build 0)  -->
<svg version="1.1" id="Layer_1" xmlns="http://www.w3.org/2000/svg" xmlns:xlink="http://www.w3.org/1999/xlink" x="0px" y="0px"
	 viewBox="0 0 1500 1655.6" enable-background="new 0 0 1500 1655.6" xml:space="preserve">
<rect y="0" fill="#567DF4" width="1500" height="1655.6"/>
<g>
	<defs>
		<rect id="SVGID_1_" y="0" width="1500" height="1655.6"/>
	</defs>
	<clipPath id="SVGID_2_">
		<use xlink:href="#SVGID_1_"  overflow="visible"/>
	</clipPath>
	<path clip-path="url(#SVGID_2_)" fill="#FFFBFD" d="M158.7,1597.3c38.9,39.2,75.3,58.3,115.3,58.3c25.1,0,51.7-7.5,81.1-22.4
		c348.3-175.2,703.8-346.4,1038.1-506.7c64.5-31,93.8-74.1,95-139.8c1-53.3,3.4-107.6,5.6-160.1c4-93.2,8.1-189.6,5.1-284.4
		c-3.8-122.4-73.9-220.4-146.7-310.1c3.4-7.1,8.8-18,15.1-31l12.8-26.1l-7.2-5.4C1188.6,30.2,974.4-21.2,699,7.8
		c-34.7,3.6-69.4,11-102.9,18.2c-6.4,1.4-12.7,2.7-19.1,4.1C237.1,101.5,45.3,326.8,7.1,699.8C-2.4,792.6,1,888,4.3,980.1
		c3.2,90.4,6.6,183.9-2.4,274.3C-13.4,1409.7,63.9,1501.5,158.7,1597.3 M147.5,1249.7c16.4-16.6,61.3-53.4,76.1-65.4
		c14.8-11.9,82.8-43.2,123.3-64.1c94.7-49,192.7-99.7,287.3-152.8c114.5-64.3,203.4-120.8,279.9-177.9c67-50,87.1-128.1,53.7-208.6
		c-37.6-91-100.2-139-186-142.7c-38.4-1.7-75.2,2-106.4,10.6c-89,24.6-179.1,50.6-266.2,75.9c-64.9,18.8-132,38.2-198.1,56.9
		c-26.2,7.4-53.5,12.6-82.4,18.1c-9.4,1.8-19.1,3.7-29,5.6c3-16.4,5.5-32,7.9-47.1c6.5-40.5,12-75.5,23.8-107.8
		c19.7-54,46.7-104.6,77.9-146.3C391.9,60.8,805.4-29.6,1131,102.7c155.9,63.4,156.9,65.4,106.6,220.5c-1.7,4.9-0.1,9.2,1.5,13.7
		c0.8,2.3,1.8,5.1,2.9,9l2.9,10.1l10.2-2.5c25.1-6.3,51.4-12.8,78.3-19.5c114.7,155.7,134.4,334.9,62.2,563
		c-16.1,51.1-71.3,101.7-117.5,125.4c-313.4,160.1-635.5,316.5-946.9,467.7l-37.8,18.3c-29.1,14.2-61.9,22.4-73.5,12.1
		c-11.6-10.3-20.1-17.8-30.9-27.2c-50.7-43.9-103.1-89.2-112.9-139.6C71.1,1327.4,111.7,1286.1,147.5,1249.7 M605.2,599
		c40.9-41.9,221.4-60.2,243.1-46.5c22.2,14,28.8,41.5,27.3,66c-2.4,39.6-64.1,160.7-95.4,188.4C685.9,890.2,514.6,692,605.2,599"/>
</g>
</svg>
